<?xml version="1.0" encoding="utf-8"?>
<!-- Generator: Adobe Illustrator 28.3.0, SVG Export Plug-In . SVG Version: 6.00 Build 0)  -->
<svg version="1.1" id="Capa_1" xmlns="http://www.w3.org/2000/svg" xmlns:xlink="http://www.w3.org/1999/xlink" x="0px" y="0px"
	 viewBox="0 0 211 175.4" style="enable-background:new 0 0 211 175.4;" xml:space="preserve">
<style type="text/css">
	.st0{fill:#AF8F41;}
	.st1{fill:#FFFFFF;}
</style>
<circle class="st0" cx="106.4" cy="88.3" r="87.5"/>
<g>
	<path class="st1" d="M54.2,123.4c-1.6-1.2-2.6-1.9-3.6-2.6c0.9-0.9,1.9-1.7,2.8-2.6c0.2,0.2,0.4,0.3,0.6,0.5v-6.3
		c-1.3-1.1-2.4-1.9-3.5-2.8c1-0.8,2.1-1.6,3.5-2.8v-5.4c-1.4-1.1-2.5-1.9-3.5-2.8c1-0.8,2-1.6,3.5-2.8v-5.3
		c-1.4-1.1-2.4-1.9-3.5-2.8c1-0.8,2-1.6,3.5-2.9v-5.3c-1.3-1.1-2.4-1.9-3.5-2.8c1-0.8,2-1.6,3.5-2.8v-5.3c-1.5-1.2-2.5-2-3.5-2.8
		c1-0.8,2-1.6,3.5-2.9v-5.2c-1.5-1.3-2.5-2.2-3.5-3.1c1-0.7,2-1.4,3.6-2.5c0-1.9,0.1-4.5,0-7.2c-0.1-2,0.7-2.8,2.7-2.8
		c29.9,0,59.9,0,89.8,0c2.1,0,2.8,0.8,2.7,2.8c-0.1,2.6,0,5.2,0,8c3.7-0.4,3.8,1.9,3.7,4.6c-0.1,2.1,0,4.1,0,6.5c1.7,0,3.2,0,4.8,0
		c1.7-0.1,2.5,0.7,2.5,2.5c0,17.8,0,35.6,0,53.4c0,1.9-0.8,2.6-2.7,2.6c-2.7-0.1-5.3,0-8.3,0c0,2.9-0.1,5.6,0,8.2
		c0.1,2-0.8,2.8-2.8,2.8c-29.8,0-59.7,0-89.5,0c-2.1,0-3-0.7-2.9-2.9C54.3,127.9,54.2,125.3,54.2,123.4L54.2,123.4z M138.3,45.8H58
		v6.3c1.5,1.1,2.5,1.8,3.5,2.5c-1,0.9-2,1.8-3.5,3.1v5.2c1.5,1.3,2.5,2.1,3.5,2.9c-1.1,0.8-2.2,1.7-3.4,2.7V74
		c1.5,1.2,2.5,1.9,3.4,2.7c-1,0.9-2,1.8-3.5,3V85c1.5,1,2.5,1.8,3.5,2.5c-1,0.9-2.1,1.9-3.5,3.2v5.1c1.5,1.2,2.5,2,3.5,2.8
		c-1,0.9-2.1,1.7-3.5,2.9v6.2c0.2-0.2,0.4-0.3,0.6-0.5c1,0.8,1.9,1.7,2.9,2.5c-1,0.8-2,1.6-3.5,2.7v5.3c1.5,1.2,2.5,2,3.5,2.8
		c-1.1,0.8-2.1,1.7-3.5,2.7v6.4h80.3V45.8z M149.3,107.7v-51h-7v51L149.3,107.7L149.3,107.7z M153.1,67.7c0,1.2,0,2.2,0,3.1
		c0,12.5,0,25,0,37.5c0,2.4-0.8,3.3-3.2,3.2c-2.6-0.1-5.1,0-7.6,0v7.2h14.3V67.7H153.1L153.1,67.7z M142.2,45.7v7.2h3.4v-7.2H142.2z
		 M142.3,122.5v7.3h3.3v-7.3H142.3z"/>
	<path class="st1" d="M98.2,111.4c-7.5,0-15.1-0.1-22.6,0c-2.3,0-3.1-0.8-3.1-3.1c0.1-13.8,0.1-27.6,0-41.4c0-2.2,0.7-3.1,3-3.1
		c15.1,0.1,30.2,0.1,45.3,0c2.3,0,3,0.8,3,3.1c-0.1,13.8-0.1,27.6,0,41.4c0,2.4-0.9,3.2-3.2,3.1C113.1,111.4,105.6,111.4,98.2,111.4
		L98.2,111.4z M120.1,67.8H76.2v36.8c3.1-3.6,5.8-6.8,8.5-10c1.2-1.5,2.4-1.7,3.9-0.4c2.1,1.9,4.3,3.6,6.6,5.5
		c3.5-4.7,6.9-9.2,10.3-13.7c1.9-2.5,3-2.5,4.6,0.2c2.8,4.7,5.6,9.5,8.5,14.3c0.4,0.6,0.8,1.2,1.5,2.2V67.8z M118.7,107.7
		c-3.8-6.3-7.3-12.3-11-18.6c-3.3,4.5-6.5,8.6-9.6,12.8c-2.1,2.9-2.5,2.9-5.3,0.5c-1.9-1.6-3.9-3.2-5.9-4.9
		c-2.8,3.4-5.5,6.6-8.5,10.1C78.4,107.7,118.7,107.7,118.7,107.7z"/>
	<path class="st1" d="M85.4,80.4c0-3,2.4-5.4,5.4-5.5c3,0,5.5,2.5,5.5,5.4c0,2.9-2.6,5.5-5.5,5.5C87.9,85.9,85.4,83.4,85.4,80.4z
		 M90.9,77.8c-0.9,1.2-1.8,1.9-1.7,2.5c0.1,0.7,1,1.3,1.6,1.9c0.6-0.6,1.7-1.1,1.8-1.8C92.6,79.8,91.7,79.1,90.9,77.8z"/>
</g>
</svg>
