<?xml version="1.0" encoding="UTF-8"?>
<svg id="Capa_1" data-name="Capa 1" xmlns="http://www.w3.org/2000/svg" viewBox="0 0 112.02 112.02">
  <defs>
    <style>
      .cls-1 {
        fill: #fff;
        stroke-width: 0px;
      }
    </style>
  </defs>
  <path class="cls-1" d="M55.98,112.02C24.6,111.74-.26,86.68,0,55.59.26,24.85,25.53-.21,56.06,0c31.4.21,56.25,25.47,55.96,56.88-.29,30.44-25.66,55.4-56.04,55.14ZM3.69,56.02c-.1,29.08,23.88,52.75,53.27,52.38,28.01-.35,51.35-23.97,51.43-52.07.09-28.94-23.46-52.9-52.81-52.65C26.9,3.92,3.5,27.46,3.69,56.02Z"/>
  <path class="cls-1" d="M39.85,57.97c-3.83-3.14-6.24-6.9-7.07-11.63-1.86-10.63,6.23-20.69,17-21.07,8.93-.32,16.79,5.62,18.57,14.02,1.89,8.97-2.65,17.67-11.18,20.9-2.24.85-4.77,1.07-7.19,1.3-2.3.21-4.64,0-6.97.06-8.69.23-15.52,6.82-15.81,15.51-.22,6.69-.54,6.07,5.66,6.08,7.37.01,14.74-.02,22.11.02.8,0,1.71.25,2.34.7.36.26.53,1.48.26,1.73-.59.56-1.5,1.1-2.28,1.11-7.77.08-15.54-.16-23.3.12-8.22.29-8.77-3.33-8.56-9.04.37-9.69,6.18-17.01,15.56-19.44.18-.05.35-.15.85-.37ZM50.65,57.82c7.96-.06,14.53-6.66,14.41-14.49-.13-8.04-6.55-14.41-14.5-14.39-8.01.02-14.48,6.61-14.41,14.68.07,7.74,6.72,14.25,14.5,14.2Z"/>
  <path class="cls-1" d="M66.74,80.56c5.23-5.7,10.25-11.17,15.27-16.64,1.03-1.12,2.07-2.24,3.11-3.36.8-.87,1.72-1.38,2.76-.46,1.09.97.74,2-.13,2.95-3.18,3.48-6.36,6.96-9.54,10.43-3.14,3.43-6.26,6.86-9.43,10.27-1.44,1.55-2.3,1.55-3.82.05-2.65-2.61-5.25-5.27-7.89-7.89-.95-.94-1.58-1.95-.41-3.06,1.17-1.11,2.16-.38,3.07.55,2.27,2.33,4.55,4.64,7.02,7.16Z"/>
</svg>