<?xml version="1.0" encoding="utf-8"?>
<!-- Generator: Adobe Illustrator 28.3.0, SVG Export Plug-In . SVG Version: 6.00 Build 0)  -->
<svg version="1.1" id="Capa_1" xmlns="http://www.w3.org/2000/svg" xmlns:xlink="http://www.w3.org/1999/xlink" x="0px" y="0px"
	 viewBox="0 0 500 600" style="enable-background:new 0 0 500 600;" xml:space="preserve">
<style type="text/css">
	.st0{fill:#AF8F41;}
	.st1{fill:#FFFFFF;}
</style>
<circle class="st0" cx="248" cy="306.5" r="242.6"/>
<g>
	<path class="st1" d="M269.3,118.8c19.3,0,38.7,0,58,0c0.6,0.7,1.4,1.4,1.9,2.2c5.5,7.8,11.3,15.4,16.2,23.6c2.1,3.6,5,5.4,8.3,7.1
		c0.8,0.4,1.6,0.8,2.5,1.1c9.6,3.8,19.2,7.7,28.8,11.4c5.5,2.1,10.1,5.4,13,10.6c1.2,2.2,2,4.5,3,6.8v166.1
		c-2.8,5.4-7.2,6.9-13.1,6.9c-44.6-0.2-89.2-0.1-133.7-0.1c-1.1,0-2.3,0-3.9,0c0.8,1.6,1.3,2.7,1.9,3.7
		c15.7,31.1,22.6,64.1,21.7,98.8c-0.1,2.5-0.9,4.2-3.2,5.2c-18.8,8.4-38.3,14.5-58.8,17.2c-4.8,0.6-9.5,1.2-14.3,1.7h-22.3
		c-0.7-0.2-1.3-0.5-2-0.5c-24.2-1.6-47.2-8-69.3-17.7c-1.7-0.7-3.2-1.9-4.8-2.9c0-7.9,0-15.7,0-23.6c0.8-6.4,1.4-12.8,2.5-19.1
		c5.7-33.9,18.2-64.7,40.3-91.3c0.8-0.9,1.3-2.3,1.3-3.5c0.1-6.4,0.1-12.9,0-19.3c0-0.9-0.3-2.1-0.8-2.7
		c-6.3-7.7-9.9-16.7-12.5-26.2c-6.7-24.2-8-48.9-7.7-73.9c0-3.5,1.5-4.7,5.2-4.8c9.4,0,18.7,0,28.1,0c4.4,0,5.1,0.5,6.6,4.6
		c4.9,13.5,10.3,26.9,18.3,38.9c1.8,2.6,3.9,5,6.3,8c2.5-3.3,4.6-6.2,6.9-9.1c1.8-2.2,2.4-4.7,2.3-7.5c-0.1-14.2-0.1-28.4-0.1-42.6
		c0-12,5.5-19.7,16.8-24.1c10.5-4,20.9-8.3,31.3-12.6c3.1-1.3,5.4-3.2,7.4-6.4C256.7,135.9,263.2,127.5,269.3,118.8z M302.6,170.1
		v176.5c1.4,0,2.6,0,3.8,0c27.4,0,54.7,0,82.1,0c4.7,0,4.7,0,4.7-4.8c0-51,0-102,0-153.1c0-9.6-3.2-14.1-12.2-17.5
		c-13.1-5-26.5-9.5-38.8-16.7c-0.4,0.4-0.7,0.7-1,1.1c-7.3,9.1-14.5,18.3-21.8,27.4c-2.8,3.5-5.4,3.4-7.9-0.2
		C308.7,178.8,305.9,174.8,302.6,170.1L302.6,170.1z M254.8,154.8c-5.3,2.5-10.1,5-15.1,7c-8.4,3.5-17,6.7-25.5,10.1
		c-7.1,2.8-10.6,7.9-10.7,15.5c0,9.3,0,18.5,0,27.8c0,0.7,0.1,1.4,0.2,2.1c2.9-5.8,5.2-11.7,7.3-17.6c0.9-2.7,2.5-3.9,5.3-3.9
		c9.8,0.1,19.5,0,29.3,0c3.6,0,4.9,1.4,5,5c0.4,21.9-0.7,43.7-5.5,65.1c-2.8,12.5-6.5,24.7-14.8,34.9c-0.6,0.7-0.7,2-0.7,3.1
		c-0.1,6.1-0.1,12.3,0,18.4c0,1.4,0.6,2.9,1.4,4c4.3,6.1,8.8,12,13,18.1c1.1,1.5,2.1,2.3,4.1,2.3c14.4-0.1,28.8-0.1,43.2-0.1
		c1,0,1.9-0.1,2.7-0.1V170.3c-3.1,4.5-5.8,8.4-8.5,12.2c-2.9,4.1-5.3,4.2-8.5,0.2C269.6,173.3,262.1,164,254.8,154.8L254.8,154.8z
		 M242.7,203.7c-7.5,0-14.7,0.1-21.9,0c-2.1,0-2.9,0.7-3.7,2.6c-4.4,10.2-8.8,20.5-13.7,30.5c-3.1,6.4-7.3,12.3-12.9,17
		c-3.5,2.9-5,3.1-8.3-0.1c-2.6-2.5-5.1-5.1-7.2-8c-7.3-10-12.3-21.2-16.8-32.6c-1.2-3-1.6-7.1-3.8-8.6c-2.3-1.5-6.4-0.6-9.7-0.6
		c-4.8-0.1-9.6,0-14.4,0c-0.1,0.8-0.3,1.2-0.3,1.6c0.1,20.2,1.2,40.4,5.7,60.2c2.3,9.9,5.3,19.6,11.3,28c1.1,1.6,2.4,2.3,4.5,2.3
		c23.3-0.1,46.7-0.1,70,0c1.9,0,3.2-0.6,4.3-2.1c4.4-6.1,7.2-13,9.3-20.1c5.6-19.1,7-38.7,7.7-58.4
		C242.8,211.5,242.7,207.8,242.7,203.7L242.7,203.7z M186.3,473.3c26.9-0.1,52.6-6,77.3-16.6c1.8-0.8,2.5-1.7,2.3-3.6
		c-0.5-9-1-18.1-1.4-27.1c-0.1-2.1-1.1-2.8-3-3.4c-8.3-2.3-16.2-0.5-23.9,2.2c-11.9,4.2-23.6,4.4-35.4,0c-10.5-4-20.9-3.9-31.5-0.1
		c-7,2.5-14.4,4.4-21.9,3.2c-6-1-11.9-2.8-17.8-4.4c-6.4-1.8-12.7-2.6-19.3-1c-2.2,0.5-3.3,1.4-3.4,3.7c-0.4,9.1-1,18.3-1.3,27.4
		c0,0.9,1,2.4,1.9,2.8C133.5,467.2,159.2,473.1,186.3,473.3L186.3,473.3z M250.8,374.8c0,0,0-0.3-0.1-0.5
		c-6.4-15.4-14.7-29.7-25.5-42.5c-0.8-0.9-2.5-1.5-3.9-1.5c-23.2-0.1-46.5,0-69.7-0.1c-2,0-3.3,0.6-4.6,2.1
		c-10.2,12.5-18.3,26.2-24.6,41c-0.3,0.6-0.4,1.3-0.4,1.6c5.3,1.4,10.5,2.6,15.6,4.1c7.9,2.3,15.7,4.3,24,1.9
		c3.7-1.1,7.3-2.1,11-3.2c8.8-2.7,17.6-3.1,26.4-0.3c3.7,1.2,7.5,2.1,11.3,3.2c5.7,1.6,11.4,2,17.3,0.5
		C235.2,378.9,243,376.9,250.8,374.8L250.8,374.8z M110.2,413.8c4.5,0,8.8-0.5,13,0.1c5.2,0.7,10.5,2,15.5,3.7
		c9.5,3.2,18.9,3.5,28.3-0.1c12.8-4.9,25.5-5,38.3-0.1c1.3,0.5,2.7,0.7,4,1.2c7,2.2,14,2.2,21-0.1c2.6-0.8,5.2-1.5,7.8-2.3
		c7.3-2.2,14.7-3.6,22.3-1.9c0.6,0.1,1.3,0.1,2.7,0.2c-2.8-9.9-5.5-19.4-8.1-28.9c-0.5-1.9-1.5-2.7-3.4-2.3c-4.9,1.1-9.8,2-14.7,3.3
		c-7.7,2.1-15.3,4.4-23.4,2.7c-4.1-0.9-8.3-1.7-12.2-3.1c-10.1-3.6-20-3.8-30,0.1c-12.6,4.8-25.1,4.4-37.7-0.2
		c-4-1.5-8.4-1.9-12.6-2.8c-1.9-0.4-2.9,0.3-3.4,2.3c-1.9,7.1-4,14.1-5.9,21.2C111,409.2,110.6,411.8,110.2,413.8L110.2,413.8z
		 M151.2,303.9v18.2h70.1v-18.2C221.4,303.9,151.2,303.9,151.2,303.9z M281,174.9c4.3-6.1,8.3-11.9,12.4-17.8
		c-7.4-9.3-14.6-18.4-22-27.7c-4.3,6.1-8.3,11.9-12.4,17.8C266.4,156.5,273.6,165.6,281,174.9L281,174.9z M315.7,174.9
		c7.5-9.5,14.8-18.6,22-27.7c-4.2-6.1-8.2-11.8-12.4-17.7c-7.5,9.4-14.7,18.5-22,27.7C307.5,163.1,311.5,168.8,315.7,174.9z
		 M317.3,126.8h-37.8c6.4,8.1,12.6,15.8,18.9,23.8C304.7,142.6,310.8,135,317.3,126.8L317.3,126.8z"/>
	<path class="st1" d="M318.8,267.9c-1-0.1-2-0.1-3-0.3c-2-0.4-3.2-1.7-3.2-3.8c0-2.2,1.2-3.6,3.3-4c1.7-0.2,3.4-0.2,5.1-0.1
		c2.6,0.1,4.4,1.9,4.3,4.1c-0.2,2.5-1.7,3.7-4.1,3.9c-0.8,0.1-1.6,0-2.4,0C318.8,267.8,318.8,267.8,318.8,267.9L318.8,267.9z"/>
	<path class="st1" d="M318.9,329c-1.2-0.1-2.4-0.1-3.5-0.4c-2-0.6-3.2-2.2-2.6-4.1c0.4-1.3,1.8-2.8,3.1-3.3c1.6-0.6,3.5-0.3,5.3-0.2
		c2.5,0.1,4,1.5,4,3.9c0,2.5-1.6,3.8-4,4c-0.8,0.1-1.6,0-2.4,0C318.9,328.9,318.9,328.9,318.9,329L318.9,329z"/>
	<path class="st1" d="M318.8,206.6c-0.9,0-1.8,0.1-2.7,0c-2.2-0.3-3.4-1.6-3.5-3.8c-0.1-2.3,1.2-3.6,3.3-4c1.7-0.3,3.4-0.2,5.1-0.1
		c2.6,0.1,4.5,1.8,4.3,4c-0.2,2.6-1.8,3.9-4.4,3.9C320.2,206.7,319.5,206.7,318.8,206.6L318.8,206.6L318.8,206.6z"/>
	<path class="st1" d="M319.1,229.3c4.2,0,6.2,1.2,6.3,3.9c0,2.7-2,4-6.4,4c-0.4,0-0.8,0-1.2,0c-3.4,0-5.2-1.4-5.1-4
		c0-2.5,1.7-3.8,5-3.9C318.1,229.3,318.6,229.3,319.1,229.3L319.1,229.3z"/>
	<path class="st1" d="M318.7,298.2c-0.9,0-1.8,0.1-2.7,0c-2.2-0.4-3.4-1.7-3.4-3.9c0-2.2,1.2-3.6,3.4-3.8c1.7-0.2,3.4-0.1,5.1-0.1
		c2.5,0,3.9,1.4,4.2,3.8c0.2,2.2-1.7,3.9-4.2,4.1C320.3,298.3,319.5,298.2,318.7,298.2C318.7,298.2,318.7,298.2,318.7,298.2
		L318.7,298.2z"/>
</g>
</svg>
