<?xml version="1.0" encoding="UTF-8"?>
<svg id="Capa_1" data-name="Capa 1" xmlns="http://www.w3.org/2000/svg" viewBox="0 0 474.63 492.42">
  <defs>
    <style>
      .cls-1 {
        fill: #fff;
        stroke-width: 0px;
      }
    </style>
  </defs>
  <path class="cls-1" d="M385.06,492.42H89.63c-.91-.09-1.82-.24-2.73-.25-6.95-.12-13.91-.03-20.84-.38-4.9-.25-9.96-.44-14.63-1.77-14.22-4.04-26.07-12.08-35.43-23.46-8.14-9.9-14.13-20.95-14.72-34.17-.46-10.37-.99-20.74-1.03-31.12C.08,350.36-.06,299.46.03,248.56c.08-50.15.43-100.3.71-150.44.02-2.83.22-5.72.83-8.47,2.32-10.39,7.05-19.62,14.04-27.65,8.72-10.04,18.55-18.55,31.43-22.94,9.97-3.4,20.31-3.87,30.68-4.23,3.16-.11,6.32-.02,9.82-.02,0,1.17-.01,2.15,0,3.13.19,11.89.25,23.78.67,35.66.13,3.6.71,7.41,2.1,10.7,2.61,6.19,7.3,10.86,12.59,15.03,8.64,6.81,18.67,6.04,28.38,4.84,13.52-1.66,25.84-16.52,26.15-30.32.27-11.97.41-23.94.6-35.91.02-.98,0-1.96,0-2.98h53.27c0,11.59-.18,22.97.09,34.35.11,4.71.3,9.73,1.95,14.03,8.42,21.93,36.34,27.62,52.15,16.25,9.29-6.68,15.42-15.29,15.67-27.14.24-11.55.2-23.1.28-34.66,0-.96,0-1.93,0-2.9h52.68c.05.94.12,1.76.14,2.57.19,11.8.26,23.61.63,35.41.11,3.55.3,7.4,1.72,10.54,8.41,18.6,23.52,23.69,39.9,21.28,16.51-2.42,28.42-18.78,28.17-33.02-.2-11.38,0-22.77.02-34.16,0-.87.07-1.75.12-2.73,1.38.18,2.45.31,3.52.45,1.08.14,2.15.31,3.23.44,23.25,2.91,41.01,14.41,53.28,34.3,4.95,8.03,8.75,16.57,9.06,26.24.25,7.78.52,15.57.53,23.35.1,76.69.2,153.38.16,230.07-.01,26.71-.34,53.41-.71,80.12-.06,4.05-.58,8.24-1.78,12.09-5.26,16.84-15.61,29.99-30.3,39.64-8.98,5.9-18.62,10.16-29.68,10.19-5.52.01-11.05.2-16.57.36-3.51.1-7.01.27-10.51.41ZM34.73,175.93c0,1.04,0,1.79,0,2.54,0,83.39,0,166.79.01,250.18,0,.91-.07,1.92.27,2.72,3.49,8.28,7.93,15.85,15.74,20.91,4.9,3.17,9.86,5.09,16.05,5.08,66.23-.1,132.46.12,198.7.22,48.31.08,96.63.11,144.94.15.91,0,1.91.09,2.72-.22,8.9-3.45,17-8.08,21.77-16.8,2.13-3.89,5.04-7.55,5.04-12.35,0-83.23,0-166.45,0-249.68v-2.75H34.73Z"/>
  <path class="cls-1" d="M139.44,43.72c0,9.28-.2,18.57.05,27.85.3,11.1-13.79,19.12-24.61,13.7-5.5-2.75-8.48-7.03-8.61-13.05-.36-16.47-.54-32.94-.76-49.42-.03-1.92.13-3.85.21-5.77.29-7.24,5.37-14.26,11.77-16.28,6.63-2.09,14.76.38,19,6.31,1.52,2.12,2.68,4.99,2.76,7.56.32,9.69.13,19.4.13,29.1.02,0,.04,0,.06,0Z"/>
  <path class="cls-1" d="M386.14,43.61c0,9.45-.08,18.9.02,28.35.09,8.09-7.61,14.32-15.42,15.01-5.45.48-10.01-1.53-13.95-5.07-2.96-2.66-3.73-6.4-3.79-10.06-.31-18.31-.53-36.62-.48-54.94.02-7.32,5.51-14.28,11.84-16.19,6.7-2.02,14.79.54,18.96,6.46,1.42,2.01,2.56,4.69,2.63,7.1.29,9.77.12,19.56.12,29.35.02,0,.04,0,.06,0Z"/>
  <path class="cls-1" d="M262.96,43.52c0,8.87.07,17.74-.02,26.6-.08,7.74-3.78,13.09-10.62,15.71-6.71,2.57-14.49.81-19.37-4.42-3.03-3.25-3.48-7.46-3.52-11.5-.2-18.14-.27-36.29-.09-54.43.07-7.12,6.65-13.97,13.76-15.26,7.11-1.28,15.84,3.09,18.51,9.61.89,2.18,1.24,4.71,1.28,7.09.14,8.87.06,17.73.06,26.6Z"/>
  <path class="cls-1" d="M105.02,404.05c-5.77,0-11.55-.12-17.32.03-8.99.23-16.55-5.73-17.06-16.25-.32-6.67-.2-13.36-.07-20.04.11-6.04,7.36-15.31,15.82-15.12,12.29.27,24.6-.06,36.89.13,9.58.15,15.55,5.73,16.09,15.32.4,7.25.32,14.55-.08,21.8-.44,8.02-6.82,13.85-14.94,14.06-6.44.16-12.89.03-19.33.03v.06Z"/>
  <path class="cls-1" d="M281.32,404.03c-5.94,0-11.88-.1-17.82.02-8.18.17-15.85-5.45-16.47-15.18-.46-7.15-.48-14.37-.07-21.53.44-7.7,7.95-14.51,15.63-14.58,12.21-.12,24.43-.18,36.64.01,10.22.16,16.21,6.04,16.49,16.27.2,7.42-.04,14.86-.41,22.28-.37,7.27-8.48,12.68-14.65,12.67-6.44-.02-12.89,0-19.33,0,0,.01,0,.03,0,.04Z"/>
  <path class="cls-1" d="M281.43,262.98c-6.36,0-12.74.33-19.07-.08-8.99-.59-14.57-5.91-15.3-14.9-.57-7.06-.54-14.21-.14-21.28.44-7.68,7.15-14.65,14.81-14.87,13.2-.37,26.44-.33,39.64.22,8.07.33,13.14,5.45,14.14,13.39,1.07,8.48,1.16,17.04-.29,25.52-1.08,6.31-6.77,11.52-13.21,11.8-6.85.29-13.71.07-20.57.07,0,.05,0,.09,0,.14Z"/>
  <path class="cls-1" d="M193.17,404.01c-6.11,0-12.22.11-18.32-.03-8.25-.19-13.99-4.8-15.55-12.92-1.58-8.26-1.66-16.67-.31-24.97,1.19-7.31,8.32-13.26,15.74-13.34,12.04-.12,24.09,0,36.14-.04,8.16-.02,16.43,4.88,16.76,15.6.23,7.43.21,14.9-.39,22.3-.63,7.74-6.91,13.15-14.74,13.35-6.44.16-12.88.03-19.33.03,0,0,0,.01,0,.02Z"/>
  <path class="cls-1" d="M369.08,211.13c7.02.3,14.05.41,21.05.95,6.63.51,12.12,5.28,13.16,11.84,1.47,9.2,1.58,18.52-.16,27.71-1.12,5.95-6.88,11.01-12.96,11.13-13.46.27-26.93.37-40.39.06-7.62-.17-13.51-5.44-14.28-13.02-.79-7.78-.97-15.7-.47-23.51.5-7.87,8.01-14.21,15.96-14.66.5-.03,1-.05,1.51-.05,5.52,0,11.05,0,16.57,0,0-.15,0-.31,0-.46Z"/>
  <path class="cls-1" d="M192.75,211.84c6.61,0,13.22-.19,19.82.05,7.7.28,14.86,5.69,15.09,15.64.17,7.43.14,14.9-.43,22.3-.56,7.19-6.45,12.79-13.69,12.96-13.21.31-26.44.41-39.64.06-8.02-.22-13.21-5.05-14.66-12.96-1.47-8.02-1.58-16.18-.33-24.24,1.22-7.88,8.04-13.72,16.03-13.98,5.94-.19,11.88-.04,17.82-.04,0,.07,0,.14,0,.21Z"/>
  <path class="cls-1" d="M281.22,333.63c-5.86,0-11.72.11-17.58-.03-9.45-.22-15.78-5.68-16.58-15.07-.6-7.13-.31-14.35-.19-21.53.11-6.3,8.07-14.94,15.05-14.78,13.29.31,26.6-.03,39.89.29,6.63.16,12.79,5.57,13.33,12.18.69,8.38.94,16.89.25,25.25-.7,8.48-6.98,13.28-15.84,13.67-.33.01-.67.03-1,.03-5.78,0-11.55,0-17.33,0,0,0,0-.01,0-.02Z"/>
  <path class="cls-1" d="M105.07,333.28c-6.94,0-13.9.39-20.81-.11-6.65-.49-11.73-5.44-13.03-12.07-1.63-8.27-1.76-16.68-.52-24.99,1.1-7.34,8.97-14.06,15.12-13.91,13.21.33,26.43,0,39.64.3,6.69.15,12.88,5.46,13.46,12.33.73,8.62.82,17.39.04,26-.71,7.78-7.15,12.38-15.57,12.78-.33.02-.67.03-1,.03-5.78,0-11.55,0-17.33,0,0-.12,0-.24,0-.36Z"/>
  <path class="cls-1" d="M369.48,333.33c-6.86,0-13.75.45-20.56-.12-7.36-.62-12.76-5.81-13.44-13.06-.73-7.71-.89-15.53-.47-23.26.41-7.46,8.58-14.83,15.13-14.68,13.21.29,26.43-.01,39.64.28,6.64.15,12.49,5.37,13.56,12.04,1.42,8.87,1.46,17.88,0,26.74-1.23,7.44-7.3,12.04-15.53,12.29-6.1.19-12.22.04-18.33.04,0-.09,0-.18,0-.28Z"/>
  <path class="cls-1" d="M193.28,333.44c-6.69,0-13.42.45-20.07-.12-7.74-.65-12.56-5.29-13.96-12.89-1.49-8.1-1.59-16.34-.32-24.48,1.16-7.45,7.66-13.45,15.19-13.6,13.21-.26,26.43-.22,39.64.17,7.53.22,13.1,6.21,13.76,14.94.55,7.31.09,14.7-.12,22.05-.23,8.13-7.67,13.93-15.79,14.09-.33,0-.67.03-1,.03-5.78,0-11.55,0-17.33,0,0-.07,0-.13,0-.2Z"/>
</svg>