<?xml version="1.0" encoding="utf-8"?>
<!-- Generator: Adobe Illustrator 28.3.0, SVG Export Plug-In . SVG Version: 6.00 Build 0)  -->
<svg version="1.1" id="Capa_1" xmlns="http://www.w3.org/2000/svg" xmlns:xlink="http://www.w3.org/1999/xlink" x="0px" y="0px"
	 viewBox="0 0 383.1 380.3" style="enable-background:new 0 0 383.1 380.3;" xml:space="preserve">
<style type="text/css">
	.st0{fill:#AF8F41;}
	.st1{fill:#FFFFFF;}
</style>
<circle class="st0" cx="191.1" cy="189.4" r="186.9"/>
<g>
	<path class="st1" d="M69.1,301.5c4-9.4,7.9-18.7,11.9-28.1c17.5-41.9,35-83.9,52.4-125.9c2.5-6,7.7-7.8,14.3-6.3
		c7,1.6,13.2,5.1,19.2,9c3.4,2.2,6.8,4.6,10.3,7c5.4-9.2,9.7-18.7,11.2-29.2c1.3-8.7,0.5-17.2-3.3-25.2c-1.1-2.3-0.2-4.4,1.8-5.4
		c2.1-1,4.1-0.2,5.2,2.2c3.8,8.2,5.2,16.8,4.4,25.8c-1.1,12.6-5.8,24-12.1,34.8c-0.4,0.6-0.7,1.2-0.9,1.6c9.7,9.7,19.4,19.2,29.2,29
		c1.2-0.8,2.7-1.8,4.3-2.8c9.1-5.8,18.9-10,29.7-11.1c4.6-0.5,9.3,0,13.9,0.3c2.2,0.1,3.7,2.4,3.4,4.4c-0.4,2.1-2.2,3.5-4.5,3.3
		c-16-1.3-29.6,2.7-42.1,12.4c2.6,3.7,5.2,7.3,7.7,11c4,6.2,7.9,12.6,9.3,20.1c0.5,2.7,0.3,5.7-0.3,8.4c-0.6,2.6-2.8,4.3-5.3,5.3
		c-48,20-96,39.9-143.9,59.9c-3,1.2-6,2.5-9,3.7c-3.5,1.4-4.4,1.2-6.8-1.5C69.1,303.4,69.1,302.5,69.1,301.5z M135.6,162.6
		c-3.6,8.6-7,17.1-10.7,25.6c-0.7,1.7-0.5,2.6,0.9,3.7c12.8,9.9,26.2,18.7,40.7,26c2.8,1.4,3.7,3.5,2.6,5.7
		c-1.1,2.2-3.4,2.8-6.1,1.3c-6-3.3-12.1-6.5-17.9-10.2c-8.2-5.2-16.1-10.9-24.3-16.4c-2.5,6-5.1,12.2-7.7,18.5
		c21.4,15.5,44.1,27.9,69.6,34.5c1.3,0.3,3,0.2,4.3-0.3c6.2-2.4,12.3-5,18.4-7.6c1.4-0.6,2.7-1.2,3.4-1.5
		c-9.6-3.2-19.6-6.3-29.5-9.7c-3.9-1.3-5.2-3.4-4.1-5.9c1-2.4,3.1-2.8,6.9-1.4c4.1,1.6,8.3,3,12.4,4.5
		C170.9,210.6,149.9,189.8,135.6,162.6L135.6,162.6z M173,163.8c-5.4-3.5-10.4-7-15.8-10c-3.8-2.1-8-3.7-12.2-5
		c-3.5-1.1-5,0.4-3.9,4c1.1,3.8,2.4,7.7,4.3,11.2c8.1,15.1,19.3,27.7,31.5,39.6c10.6,10.4,21.9,20,35.1,26.9
		c3.6,1.9,7.5,3.2,11.5,4.2c3.2,0.9,4.5-0.5,3.5-3.7c-1.4-4.3-2.9-8.7-5.1-12.7c-3.1-5.6-6.9-10.8-10.6-16.4c-1.9,1.7-3.3,3-4.7,4.2
		c-1.8,1.6-4,1.6-5.5,0.1c-1.6-1.6-1.5-3.9,0.2-5.7c1.5-1.5,3.1-2.9,4.8-4.5c-8.3-9.8-17.3-18.7-27.1-26.9c-2.4,3-4.7,5.9-7.1,8.8
		c-2,2.4-4.2,2.8-6.1,1.2c-1.8-1.5-1.8-3.9,0.2-6.3C168.2,169.9,170.4,167,173,163.8L173,163.8z M173.2,256.7
		c-23.2-7.3-43.8-18.6-63.2-32.6c-2.6,6.2-5.1,12.3-7.7,18.4c1.9,1.2,3.6,2.3,5.3,3.5c2,1.4,2.6,3.7,1.4,5.5c-1.2,1.9-3.4,2.3-5.6,1
		c-1.4-0.8-2.7-1.7-4.2-2.7c-2.6,6.2-5,12-7.7,18.4c7.6,3.9,14.9,7.8,22.4,11.5c1,0.5,2.5,0.5,3.5,0.1c6.4-2.5,12.7-5.2,19-7.9
		c0.6-0.3,1.2-0.6,2.1-1.1c-1.3-0.6-2.2-0.9-3.1-1.4c-6-2.9-12-5.7-17.9-8.7c-2.3-1.2-3-3.3-1.9-5.4c1.1-2,3.2-2.7,5.5-1.6
		c0.8,0.4,1.5,0.8,2.3,1.2c8.1,3.6,16.1,7.2,24.2,10.7c0.9,0.4,2.3,0.3,3.3-0.1c4.8-1.8,9.5-3.8,14.2-5.8
		C167.7,259.1,170.2,258,173.2,256.7L173.2,256.7z M80.2,295.6c8.8-3.7,17-7.1,25.5-10.6c-5.9-3.2-11.5-6.3-17.2-9.4
		C85.8,282.1,83.1,288.6,80.2,295.6L80.2,295.6z"/>
	<path class="st1" d="M293,187.7c-1.5-1.3-2.8-2.1-3.6-3.3c-1.1-1.7-1.8-3.7-2.6-5.6c-1-2.4-2.7-4-5-5c-1.9-0.8-3.9-1.4-5.6-2.6
		c-1.1-0.8-2.3-2.4-2.3-3.7c0-1.1,1.2-2.6,2.3-3.5c1-0.8,2.4-1.2,3.6-1.7c3.9-1.3,6.6-3.8,7.9-7.9c0.4-1.3,0.9-2.8,1.8-3.8
		c0.9-1,2.3-2.2,3.5-2.2c1.2,0,2.7,1.2,3.5,2.3c1.1,1.6,1.7,3.5,2.5,5.3c1.1,2.6,2.9,4.5,5.5,5.5c1.8,0.7,3.8,1.4,5.3,2.5
		c1.1,0.8,2.2,2.3,2.2,3.5c0,1.2-1.1,2.7-2.1,3.5c-1.6,1.1-3.5,1.8-5.3,2.5c-2.7,1.1-4.5,2.9-5.6,5.5c-0.8,1.8-1.4,3.7-2.5,5.4
		C295.8,185.6,294.5,186.4,293,187.7L293,187.7z M288.4,167.6c1.5,1.5,3.3,3.3,4.4,4.4c1.5-1.3,3.5-3,4.9-4.2
		c-1.6-1.6-3.4-3.4-4.6-4.7C291.6,164.4,289.8,166.2,288.4,167.6L288.4,167.6z"/>
	<path class="st1" d="M103.7,157.3c-1.4-1.3-3-2.1-3.5-3.3c-3.2-7.6-3.3-9.6-13.2-13.2c-1.1-0.4-2.3-2.3-2.3-3.4
		c0-1.3,1.2-3.2,2.4-3.6c9.6-3.7,10.1-5.4,13.2-13.2c0.5-1.1,2.4-2.3,3.6-2.3c1.1,0,2.5,1.3,3.5,2.3c0.6,0.6,0.9,1.7,1.2,2.5
		c1.5,4.9,4.7,8,9.6,9.6c2.3,0.7,4.9,1.6,4.9,4.7c0,3.1-2.7,3.9-5,4.7c-4.9,1.6-8.1,4.7-9.6,9.6c-0.3,1-0.7,2-1.3,2.8
		C106.3,155.4,105.1,156.1,103.7,157.3L103.7,157.3z M99.3,137.2c1.4,1.4,3.3,3.2,4.6,4.4c1.3-1.2,3.2-3,4.5-4.2
		c-1.5-1.5-3.4-3.3-4.5-4.4C102.5,134.2,100.6,135.9,99.3,137.2z"/>
	<path class="st1" d="M231.8,279.1c-1.3,1.5-2,3.2-3.1,3.6c-6.9,2.1-11.2,6.5-13.4,13.4c-0.3,1.1-2.3,2.3-3.4,2.3
		c-1.3-0.1-3.2-1.3-3.6-2.4c-2.2-6.8-6.4-11.1-13.3-13.2c-1.1-0.3-2.2-2.4-2.2-3.6c0-1.2,1.2-3.1,2.2-3.4
		c6.8-2.1,11.1-6.4,13.3-13.2c0.4-1.1,2.3-2.4,3.6-2.4c1.2,0,3.1,1.3,3.5,2.5c2.2,6.7,6.4,11,13.1,13.1
		C229.6,276,230.4,277.7,231.8,279.1L231.8,279.1z M207.3,279.1c1.4,1.4,3.2,3.3,4.5,4.6c1.3-1.3,3.1-3.2,4.5-4.5
		c-1.4-1.4-3.2-3.2-4.4-4.4C210.5,276,208.7,277.8,207.3,279.1L207.3,279.1z"/>
	<path class="st1" d="M294.8,85.7c-0.4,0.5-1.2,1.9-2.3,2.6c-1.6,1-3.4,1.7-5.1,2.4c-2.9,1.1-4.8,3.1-6,6c-0.7,1.7-1.2,3.5-2.3,4.9
		c-0.8,1.1-2.3,2.3-3.4,2.2c-1.3,0-3.3-1.2-3.6-2.3c-2.1-6.8-6.5-11.1-13.2-13.3c-1.1-0.4-2.4-2.4-2.4-3.6c0-1.2,1.6-2.4,2.5-3.6
		c0-0.1,0.1-0.1,0.2-0.1c9.2-4.3,8.1-2.4,12.7-12.7c0.7-1.7,1.9-2.7,3.8-2.7c1.9,0,3,1.1,3.8,2.7c0,0.1,0.1,0.1,0.1,0.2
		c1.8,6.4,5.9,10.5,12.4,12.4C293.6,81.5,294.7,82.8,294.8,85.7L294.8,85.7z M275.6,80.1c-1.5,1.5-3.4,3.3-4.5,4.4
		c1.3,1.6,3.1,3.6,4.2,4.9c1.6-1.6,3.4-3.4,4.7-4.6C278.8,83.5,277,81.6,275.6,80.1L275.6,80.1z"/>
	<path class="st1" d="M273.8,248.8c-8.9,0-16.2-7.1-16.2-16c0-8.8,7.3-16.2,16.1-16.2c8.7,0,16,7.3,16.1,16
		C289.9,241.5,282.7,248.8,273.8,248.8L273.8,248.8z M281.9,232.7c0-4.7-3.6-8.2-8.3-8.2c-4.5,0-8,3.6-8.1,8.1
		c0,4.7,3.5,8.3,8.2,8.3C278.3,241,281.9,237.4,281.9,232.7L281.9,232.7z"/>
	<path class="st1" d="M153.5,106.9c-8.9,0-16-7.2-16-16.2c0-8.8,7.2-15.9,16.1-15.9c8.9,0,16.2,7.2,16.2,16.1
		C169.7,99.8,162.4,106.9,153.5,106.9z M161.7,91c0-4.6-3.6-8.3-8.1-8.4c-4.6,0-8.2,3.7-8.2,8.3c0,4.6,3.7,8.3,8.3,8.3
		C158.1,99.1,161.7,95.5,161.7,91z"/>
	<path class="st1" d="M244.4,91c-0.1,9-7.2,16-16.3,15.9c-8.9-0.1-15.9-7.2-15.8-16.1c0.1-8.9,7.2-16,16-16
		C237.3,74.8,244.4,82,244.4,91z M228.4,82.6c-4.5,0-8.3,3.8-8.3,8.3s4,8.3,8.4,8.3c4.4-0.1,8.1-3.8,8.2-8.2
		C236.7,86.5,232.9,82.6,228.4,82.6L228.4,82.6z"/>
	<path class="st1" d="M201.9,173.1c-1.2-1.1-2.5-1.9-3.2-3.1c-1-1.5-0.2-3,0.9-4.3c2.8-3.1,5.7-6.2,8.3-9.5
		c7.8-9.9,13.8-20.7,16.6-33.2c0.5-2.4,2.6-3.8,4.7-3.3c2.3,0.6,3.4,2.5,2.9,5.1c-2.8,13-9,24.4-17,34.8c-2.9,3.8-6.2,7.4-9.5,10.9
		C204.8,171.7,203.5,172.2,201.9,173.1L201.9,173.1z"/>
	<path class="st1" d="M279.8,129.1c2.6,0,4.2,1.2,4.4,3.2c0.3,2.1-0.8,3.9-2.8,4.3c-15,3.4-26.9,12.1-37.9,22.2
		c-0.9,0.9-1.8,1.8-2.8,2.6c-1.9,1.6-3.9,1.6-5.5,0.1c-1.6-1.6-1.7-4,0.2-5.7c4.1-3.7,8.1-7.6,12.4-11c9-7,18.8-12.8,30-15.5
		C278.6,129.3,279.4,129.2,279.8,129.1L279.8,129.1z"/>
</g>
</svg>
