<?xml version="1.0" encoding="utf-8"?>
<!-- Generator: Adobe Illustrator 28.0.0, SVG Export Plug-In . SVG Version: 6.00 Build 0)  -->
<svg version="1.1" id="Capa_1" xmlns="http://www.w3.org/2000/svg" xmlns:xlink="http://www.w3.org/1999/xlink" x="0px" y="0px"
	 viewBox="0 0 451.7 200.4" style="enable-background:new 0 0 451.7 200.4;" xml:space="preserve">
<style type="text/css">
	.st0{fill:url(#SVGID_1_);}
	.st1{fill:url(#SVGID_00000040547653191458315300000010872428538547315379_);}
	.st2{fill:url(#SVGID_00000153694367032367477920000009298881851080999346_);}
	.st3{fill:url(#SVGID_00000029021228007454654620000001412972526950463423_);}
	.st4{fill:url(#SVGID_00000017514989592870401980000017168425605173747598_);}
	.st5{fill:url(#SVGID_00000093175366005182427710000008472133831788583584_);}
	.st6{fill:url(#SVGID_00000031905301802191806060000012268654346711851417_);}
	.st7{fill:url(#SVGID_00000075152488752168000280000015332561740918402185_);}
	.st8{fill:url(#SVGID_00000104667344634811289250000005528300401046171523_);}
	.st9{fill:url(#SVGID_00000128475338520649038090000002705723173544282254_);}
	.st10{fill:url(#SVGID_00000163059067847407494760000001343576887267687863_);}
	.st11{fill:url(#SVGID_00000028314426463191594710000002750079697906581686_);}
	.st12{fill:url(#SVGID_00000066489290773381526930000000230399533453390226_);}
	.st13{fill:url(#SVGID_00000040546891191570646540000015707502181410212015_);}
	.st14{fill:url(#SVGID_00000126318079499883827220000013045627913597385874_);}
	.st15{fill:url(#SVGID_00000036210801523830222220000007731533562872439472_);}
	.st16{fill:url(#SVGID_00000145056415997455266310000006200415923901712516_);}
	.st17{fill:url(#SVGID_00000040551995422403514700000011222395387101511846_);}
	.st18{fill:url(#SVGID_00000114050028590799793990000003733861465274700467_);}
	.st19{fill:url(#SVGID_00000006694334412054160890000007668896418436828809_);}
	.st20{fill:url(#SVGID_00000016765638376126262480000008686948919577318019_);}
	.st21{fill:url(#SVGID_00000183225713578961258400000005084304737617804465_);}
	.st22{fill:url(#SVGID_00000060736146883391073860000010628100242099654075_);}
	.st23{fill:url(#SVGID_00000039814352585048384170000002093797393944304575_);}
	.st24{fill:url(#SVGID_00000056406910848725113360000016032922291159304361_);}
	.st25{fill:url(#SVGID_00000046316157369328462830000012615623311336841108_);}
	.st26{fill:url(#SVGID_00000034055895880373449070000015109346660966672797_);}
	.st27{fill:url(#SVGID_00000137852803566473774430000018241751223582780039_);}
	.st28{fill:url(#SVGID_00000119107308555561468730000016317433093935374492_);}
	.st29{fill:url(#SVGID_00000163036256083865242470000011796369917240099207_);}
	.st30{fill:url(#SVGID_00000094588504102780127840000006281926501137863591_);}
	.st31{fill:url(#SVGID_00000068648907031270067760000012897650553562767237_);}
	.st32{fill:url(#SVGID_00000096781703405149284800000014041579408396297347_);}
	.st33{fill:url(#SVGID_00000101816013813580096360000001260409684681904547_);}
	.st34{fill:url(#SVGID_00000043442952334838440130000009206855846824130989_);}
	.st35{fill:url(#SVGID_00000005978299882289922310000014758844961030881425_);}
	.st36{fill:url(#SVGID_00000065782877234513799340000009482033088273348754_);}
	.st37{fill:url(#SVGID_00000170272857441595425150000007387209057173119380_);}
	.st38{fill:url(#SVGID_00000109031679879984291200000007717267672689209759_);}
	.st39{fill:url(#SVGID_00000135657635786307937990000005240748448424555683_);}
	.st40{fill:url(#SVGID_00000087392669101764495810000006536617474040708483_);}
	.st41{fill:url(#SVGID_00000070806757629640809480000007404210532931667110_);}
	.st42{fill:url(#SVGID_00000021110927088225144880000009141250561732839601_);}
	.st43{fill:url(#SVGID_00000176008442824604492810000011049184159792171914_);}
	.st44{fill:#826F3C;}
	.st45{fill:#A0823F;}
</style>
<g>
	<g>
		
			<linearGradient id="SVGID_1_" gradientUnits="userSpaceOnUse" x1="397.05" y1="177.6244" x2="412.2694" y2="177.6244" gradientTransform="matrix(1 0 0 -1 0 199.89)">
			<stop  offset="0" style="stop-color:#5D3F0F"/>
			<stop  offset="0.58" style="stop-color:#EFC553"/>
			<stop  offset="0.87" style="stop-color:#886723"/>
			<stop  offset="1" style="stop-color:#5D3F0F"/>
		</linearGradient>
		<path class="st0" d="M397,14.7c0,0,1.1,15.2,15.2,15.1c0.8-7.2-11.4-14-11.4-14s3.3,3.3,4.3,7.6C402.8,22.8,399.9,20.7,397,14.7z"
			/>
		
			<linearGradient id="SVGID_00000033339040750512479280000015780972317157527971_" gradientUnits="userSpaceOnUse" x1="384.47" y1="178.7844" x2="399.6894" y2="178.7844" gradientTransform="matrix(1 0 0 -1 0 199.89)">
			<stop  offset="0" style="stop-color:#5D3F0F"/>
			<stop  offset="0.58" style="stop-color:#EFC553"/>
			<stop  offset="0.87" style="stop-color:#886723"/>
			<stop  offset="1" style="stop-color:#5D3F0F"/>
		</linearGradient>
		<path style="fill:url(#SVGID_00000033339040750512479280000015780972317157527971_);" d="M384.5,13.6c0,0,1.1,15.2,15.2,15.1
			c0.8-7.2-11.4-14-11.4-14s3.3,3.3,4.3,7.6C390.2,21.7,387.3,19.6,384.5,13.6z"/>
		
			<linearGradient id="SVGID_00000079462484000001263350000014409357028296083842_" gradientUnits="userSpaceOnUse" x1="374.7093" y1="183.6435" x2="448.6534" y2="183.6435" gradientTransform="matrix(1 0 0 -1 0 199.89)">
			<stop  offset="0" style="stop-color:#5D3F0F"/>
			<stop  offset="0.58" style="stop-color:#EFC553"/>
			<stop  offset="0.87" style="stop-color:#886723"/>
			<stop  offset="1" style="stop-color:#5D3F0F"/>
		</linearGradient>
		<path style="fill:url(#SVGID_00000079462484000001263350000014409357028296083842_);" d="M442.7,23.8c-1.6,0-3.4-0.4-5.6-1.1
			c-2.1-0.7-4.6-1.8-7.4-3.1c-7-3.1-15.6-7-26.9-8.9c-15.7-2.7-27.4,0.5-27.5,0.6c-0.3,0.1-0.5-0.1-0.6-0.3
			c-0.1-0.3,0.1-0.5,0.3-0.6c0.1,0,12-3.3,28-0.6c11.4,2,20.5,6,27.1,9c2.8,1.3,5.2,2.3,7.3,3.1c8.2,2.8,9.6-0.8,10-2
			c0.4-1.1,0.1-2.3-0.7-3.2c-0.9-0.9-2.1-1.2-3.2-0.8c-1.2,0.4-1.4,1.4-1.3,2.1s0.7,1.6,1.7,1.5c0.6,0,0.9-0.2,1.1-0.5
			c0.3-0.4,0.1-1.1,0.1-1.1c-0.1-0.3,0.1-0.5,0.3-0.6c0.3-0.1,0.5,0.1,0.6,0.3c0,0,0.3,1.1-0.3,2c-0.4,0.5-1,0.8-1.9,0.9
			c-1.5,0.1-2.5-1.1-2.8-2.3c-0.2-1.2,0.3-2.7,1.9-3.3c1.5-0.5,3.1-0.1,4.3,1c1.1,1.1,1.5,2.8,0.9,4.3
			C447.5,22.6,445.6,23.8,442.7,23.8L442.7,23.8z"/>
		
			<linearGradient id="SVGID_00000072278269751476847420000016928340385106644644_" gradientUnits="userSpaceOnUse" x1="344.91" y1="187.9504" x2="364.8783" y2="187.9504" gradientTransform="matrix(1 0 0 -1 0 199.89)">
			<stop  offset="0" style="stop-color:#5D3F0F"/>
			<stop  offset="0.58" style="stop-color:#EFC553"/>
			<stop  offset="0.87" style="stop-color:#886723"/>
			<stop  offset="1" style="stop-color:#5D3F0F"/>
		</linearGradient>
		<path style="fill:url(#SVGID_00000072278269751476847420000016928340385106644644_);" d="M344.9,20.6c0,0,2.6-18.7,20-17.3
			c0.4,9-15.2,16.3-15.2,16.3s4.3-3.7,5.9-9C352.6,11.1,348.9,13.5,344.9,20.6L344.9,20.6z"/>
		
			<linearGradient id="SVGID_00000072969966083926470280000016156620074255694522_" gradientUnits="userSpaceOnUse" x1="360.89" y1="191.2206" x2="385.44" y2="191.2206" gradientTransform="matrix(1 0 0 -1 0 199.89)">
			<stop  offset="0" style="stop-color:#5D3F0F"/>
			<stop  offset="0.58" style="stop-color:#EFC553"/>
			<stop  offset="0.87" style="stop-color:#886723"/>
			<stop  offset="1" style="stop-color:#5D3F0F"/>
		</linearGradient>
		<path style="fill:url(#SVGID_00000072969966083926470280000016156620074255694522_);" d="M360.9,14.1c0,0,8.6-16.8,24.5-9.8
			c-2.6,8.6-19.8,10.4-19.8,10.4s5.3-2.1,8.5-6.6C371.3,7.7,367,8.7,360.9,14.1L360.9,14.1z"/>
		
			<linearGradient id="SVGID_00000158006282462096819420000003740207464380243087_" gradientUnits="userSpaceOnUse" x1="272.0613" y1="191.8676" x2="290.7936" y2="191.8676" gradientTransform="matrix(1 0 0 -1 0 199.89)">
			<stop  offset="0" style="stop-color:#5D3F0F"/>
			<stop  offset="0.58" style="stop-color:#EFC553"/>
			<stop  offset="0.87" style="stop-color:#886723"/>
			<stop  offset="1" style="stop-color:#5D3F0F"/>
		</linearGradient>
		<path style="fill:url(#SVGID_00000158006282462096819420000003740207464380243087_);" d="M281.2,13.6c-4.5,0-8.6-1.9-8.9-2
			c-0.2-0.1-0.4-0.4-0.2-0.7s0.4-0.4,0.7-0.2c0.1,0.1,9.9,4.6,15.6-0.6c1.6-1.4,1.5-3,1.3-3.8c-0.3-1.3-1.3-2.4-2.4-2.7
			c-1.1-0.3-2.2,0.3-2.6,0.9c-0.5,0.7-0.4,1.6,0.2,2.3c0.4,0.5,1,1,1.6,0.7c0.5-0.3,0.8-0.9,0.7-1.3c-0.2-0.7-0.8-0.6-0.9-0.6
			c-0.3,0.1-0.5-0.1-0.6-0.4c-0.1-0.3,0.1-0.5,0.4-0.6c0.7-0.2,1.8,0.1,2.1,1.3c0.2,0.9-0.3,2-1.2,2.4c-0.9,0.5-2,0.1-2.9-0.9
			c-0.9-1.1-0.9-2.4-0.2-3.5c0.8-1.2,2.3-1.8,3.7-1.4c1.5,0.4,2.7,1.8,3.1,3.4c0.4,1.7-0.2,3.5-1.6,4.8
			C286.7,12.9,283.9,13.6,281.2,13.6L281.2,13.6z"/>
		<g>
			
				<linearGradient id="SVGID_00000092420452457622654920000001176108867556923068_" gradientUnits="userSpaceOnUse" x1="260.77" y1="185.8726" x2="312.05" y2="185.8726" gradientTransform="matrix(1 0 0 -1 0 199.89)">
				<stop  offset="0" style="stop-color:#5D3F0F"/>
				<stop  offset="0.58" style="stop-color:#EFC553"/>
				<stop  offset="0.87" style="stop-color:#886723"/>
				<stop  offset="1" style="stop-color:#5D3F0F"/>
			</linearGradient>
			<path style="fill:url(#SVGID_00000092420452457622654920000001176108867556923068_);" d="M260.8,5.4c0,0,2.8,9.6,13.3,15.8
				s24.5-9.6,38-10.4c-6-0.6-15.6-0.1-24.4,4.6S265.1,11.4,260.8,5.4z"/>
			<g>
				
					<linearGradient id="SVGID_00000122693121626016070880000009046315343387342005_" gradientUnits="userSpaceOnUse" x1="222.003" y1="185.7212" x2="337.03" y2="185.7212" gradientTransform="matrix(1 0 0 -1 0 199.89)">
					<stop  offset="0" style="stop-color:#5D3F0F"/>
					<stop  offset="0.58" style="stop-color:#EFC553"/>
					<stop  offset="0.87" style="stop-color:#886723"/>
					<stop  offset="1" style="stop-color:#5D3F0F"/>
				</linearGradient>
				<path style="fill:url(#SVGID_00000122693121626016070880000009046315343387342005_);" d="M233,13.8c0.2-0.9,0.6-1.7,1.4-2.2
					c0.7-0.6,1.7-0.8,2.6-0.7c0.9,0.1,1.8,0.2,2.6,0.8c0.8,0.5,1.3,1.3,1.8,2.1c0.8,1.6,1,3.6,0.5,5.4c-0.5,1.8-1.7,3.4-3.1,4.5
					c-1.5,1.1-3.3,1.8-5.2,1.8c-1.9,0.1-3.7-0.3-5.4-1.1c-1.7-0.8-3.2-2-4.3-3.6c-1.1-1.5-1.7-3.4-1.8-5.3c-0.1-1.9,0.4-3.8,1.2-5.5
					c0.8-1.7,2-3.2,3.3-4.5c2.8-2.5,6.3-4.1,9.9-4.8c1.8-0.4,3.6-0.5,5.4-0.6c1.8,0,3.6,0.1,5.4,0.4c3.6,0.5,7.1,1.5,10.5,2.7
					c3.4,1.2,6.6,2.8,9.8,4.4c3.2,1.6,6.3,3.2,9.5,4.7c6.4,3.1,12.8,6,19.3,8.6c6.5,2.6,13.2,4.9,20.2,6.1c3.5,0.6,7,0.9,10.5,0.6
					c3.5-0.2,6.9-1.4,10.1-3c-3.1,1.8-6.5,3.1-10,3.5c-1.8,0.2-3.6,0.3-5.4,0.3c-1.8,0-3.6-0.2-5.3-0.4c-7.1-1-13.9-3.2-20.6-5.6
					c-6.7-2.5-13.1-5.4-19.6-8.4c-3.2-1.5-6.4-3.1-9.6-4.6c-3.2-1.6-6.3-3.1-9.6-4.3c-3.3-1.2-6.6-2.2-10-2.7
					c-1.7-0.2-3.4-0.4-5.1-0.4c-1.7,0-3.4,0.2-5.1,0.5c-3.3,0.6-6.6,2-9.1,4.3c-2.5,2.2-4.3,5.3-4.3,8.7c0,1.6,0.5,3.3,1.4,4.6
					c0.9,1.4,2.2,2.5,3.7,3.2c3,1.5,6.8,1.6,9.6-0.4c1.4-0.9,2.5-2.3,3-3.9c0.5-1.6,0.4-3.4-0.3-5c-0.4-0.8-0.9-1.5-1.5-2
					c-0.7-0.5-1.6-0.7-2.4-0.8c-0.9-0.1-1.8,0.1-2.5,0.6S233.2,12.9,233,13.8L233,13.8z"/>
				
					<linearGradient id="SVGID_00000065790502974969528830000013499449021925090183_" gradientUnits="userSpaceOnUse" x1="232.89" y1="185.34" x2="240.44" y2="185.34" gradientTransform="matrix(1 0 0 -1 0 199.89)">
					<stop  offset="0" style="stop-color:#5D3F0F"/>
					<stop  offset="0.58" style="stop-color:#EFC553"/>
					<stop  offset="0.87" style="stop-color:#886723"/>
					<stop  offset="1" style="stop-color:#5D3F0F"/>
				</linearGradient>
				<path style="fill:url(#SVGID_00000065790502974969528830000013499449021925090183_);" d="M240.4,14.5c0,2.1-1.7,3.8-3.8,3.8
					s-3.8-1.7-3.8-3.8s1.7-3.8,3.8-3.8S240.4,12.5,240.4,14.5z"/>
				
					<linearGradient id="SVGID_00000104696343263617427020000004126467870314937746_" gradientUnits="userSpaceOnUse" x1="335.3199" y1="176.55" x2="451.7" y2="176.55" gradientTransform="matrix(1 0 0 -1 0 199.89)">
					<stop  offset="0" style="stop-color:#5D3F0F"/>
					<stop  offset="0.58" style="stop-color:#EFC553"/>
					<stop  offset="0.87" style="stop-color:#886723"/>
					<stop  offset="1" style="stop-color:#5D3F0F"/>
				</linearGradient>
				<path style="fill:url(#SVGID_00000104696343263617427020000004126467870314937746_);" d="M335.3,25.4c0,0,38.9-21.9,75.7-11
					c22.8,6.4,29,18.3,40.7,19.9c-5,2.5-17.8-0.7-22.7-5.3c2.7,4.5,1.4,6.2,1.4,6.2s-5.8-3.4-9-9.8c0.9,3.6,1.7,7.6,1.7,7.6
					s-8.9-4.4-12-14.7c-0.6-0.9-13.3-4.5-30.4-4.1S342.9,22.8,335.3,25.4L335.3,25.4z"/>
				
					<linearGradient id="SVGID_00000077282532912796928330000008317308374936577933_" gradientUnits="userSpaceOnUse" x1="305.08" y1="184.4514" x2="345.2368" y2="184.4514" gradientTransform="matrix(1 0 0 -1 0 199.89)">
					<stop  offset="0" style="stop-color:#5D3F0F"/>
					<stop  offset="0.58" style="stop-color:#EFC553"/>
					<stop  offset="0.87" style="stop-color:#886723"/>
					<stop  offset="1" style="stop-color:#5D3F0F"/>
				</linearGradient>
				<path style="fill:url(#SVGID_00000077282532912796928330000008317308374936577933_);" d="M305.1,24.7c0,0,15.2,4.2,19.2-8.7
					c2.5,1.8,0,6.8,0,6.8c3.5-1.1,7.8-4.6,8.2-8.3c2.2,1.5,1.5,6.8,1.5,6.8c3.8-2.6,10-12.7,5.2-18.5c7.7,4.8,7.9,14,2.1,19.9
					C333,30.9,315.2,28.3,305.1,24.7L305.1,24.7z"/>
			</g>
		</g>
	</g>
	<g>
		
			<linearGradient id="SVGID_00000181779429966824576190000004588499622315245696_" gradientUnits="userSpaceOnUse" x1="160.9064" y1="191.8876" x2="179.6287" y2="191.8876" gradientTransform="matrix(1 0 0 -1 0 199.89)">
			<stop  offset="0" style="stop-color:#5D3F0F"/>
			<stop  offset="0.58" style="stop-color:#EFC553"/>
			<stop  offset="0.87" style="stop-color:#886723"/>
			<stop  offset="1" style="stop-color:#5D3F0F"/>
		</linearGradient>
		<path style="fill:url(#SVGID_00000181779429966824576190000004588499622315245696_);" d="M170.5,13.6c-2.7,0-5.5-0.7-7.8-2.7
			c-1.4-1.3-2-3.1-1.6-4.8c0.4-1.7,1.6-3,3.1-3.4c1.4-0.4,2.9,0.2,3.7,1.4c0.7,1.1,0.6,2.4-0.2,3.5c-0.8,1.1-1.9,1.4-2.9,0.9
			c-0.9-0.5-1.4-1.5-1.2-2.4c0.3-1.2,1.4-1.4,2.1-1.3c0.3,0.1,0.4,0.3,0.4,0.6s-0.3,0.4-0.6,0.4c-0.2,0-0.8-0.1-0.9,0.6
			c-0.1,0.4,0.2,1,0.7,1.3c0.6,0.3,1.2-0.2,1.6-0.7c0.6-0.7,0.6-1.6,0.2-2.3c-0.4-0.7-1.4-1.3-2.6-0.9c-1.1,0.3-2.1,1.4-2.4,2.7
			c-0.2,0.8-0.3,2.4,1.3,3.8c5.7,5.1,15.5,0.6,15.6,0.6c0.2-0.1,0.6,0,0.7,0.2s0,0.6-0.2,0.7C179.1,11.7,175,13.6,170.5,13.6
			L170.5,13.6z"/>
		
			<linearGradient id="SVGID_00000142879418477804202860000001985824380499568573_" gradientUnits="userSpaceOnUse" x1="3.0367" y1="183.6485" x2="77.0015" y2="183.6485" gradientTransform="matrix(1 0 0 -1 0 199.89)">
			<stop  offset="0" style="stop-color:#5D3F0F"/>
			<stop  offset="0.58" style="stop-color:#EFC553"/>
			<stop  offset="0.87" style="stop-color:#886723"/>
			<stop  offset="1" style="stop-color:#5D3F0F"/>
		</linearGradient>
		<path style="fill:url(#SVGID_00000142879418477804202860000001985824380499568573_);" d="M9,23.8c-2.9,0-4.8-1.2-5.7-3.7
			c-0.5-1.5-0.2-3.1,0.9-4.3c1.1-1.2,2.8-1.6,4.3-1c1.6,0.6,2.1,2.1,1.9,3.3s-1.3,2.4-2.8,2.3c-0.9,0-1.5-0.4-1.9-0.9
			c-0.6-0.8-0.3-1.9-0.3-2c0.1-0.3,0.4-0.4,0.6-0.3c0.3,0.1,0.4,0.4,0.3,0.6c0,0-0.2,0.7,0.1,1.1c0.2,0.3,0.6,0.4,1.1,0.5
			c1,0.1,1.6-0.8,1.7-1.5s-0.1-1.7-1.3-2.1c-1.1-0.4-2.3-0.1-3.2,0.8c-0.9,0.9-1.1,2.1-0.7,3.2c0.4,1.2,1.8,4.8,10,2
			c2.1-0.7,4.5-1.8,7.3-3.1c6.6-3,15.7-7,27.1-9c15.9-2.7,27.8,0.6,28,0.6c0.3,0.1,0.4,0.4,0.3,0.6c-0.1,0.3-0.3,0.4-0.6,0.3
			c-0.1,0-11.8-3.3-27.5-0.6c-11.3,1.9-19.9,5.8-26.9,8.9c-2.8,1.3-5.3,2.4-7.4,3.1C12.4,23.5,10.6,23.8,9,23.8L9,23.8z"/>
		
			<linearGradient id="SVGID_00000009589274174304380580000012901322649051817384_" gradientUnits="userSpaceOnUse" x1="86.8217" y1="187.9504" x2="106.79" y2="187.9504" gradientTransform="matrix(1 0 0 -1 0 199.89)">
			<stop  offset="0" style="stop-color:#5D3F0F"/>
			<stop  offset="0.58" style="stop-color:#EFC553"/>
			<stop  offset="0.87" style="stop-color:#886723"/>
			<stop  offset="1" style="stop-color:#5D3F0F"/>
		</linearGradient>
		<path style="fill:url(#SVGID_00000009589274174304380580000012901322649051817384_);" d="M106.8,20.6c0,0-2.6-18.7-20-17.3
			c-0.4,9,15.2,16.3,15.2,16.3s-4.3-3.7-5.9-9C99.1,11.1,102.8,13.5,106.8,20.6L106.8,20.6z"/>
		
			<linearGradient id="SVGID_00000161591584964540437310000011135721996587757697_" gradientUnits="userSpaceOnUse" x1="66.26" y1="191.2206" x2="90.81" y2="191.2206" gradientTransform="matrix(1 0 0 -1 0 199.89)">
			<stop  offset="0" style="stop-color:#5D3F0F"/>
			<stop  offset="0.58" style="stop-color:#EFC553"/>
			<stop  offset="0.87" style="stop-color:#886723"/>
			<stop  offset="1" style="stop-color:#5D3F0F"/>
		</linearGradient>
		<path style="fill:url(#SVGID_00000161591584964540437310000011135721996587757697_);" d="M90.8,14.1c0,0-8.6-16.8-24.5-9.8
			C68.8,12.9,86,14.7,86,14.7s-5.3-2.1-8.5-6.6C80.4,7.7,84.7,8.7,90.8,14.1L90.8,14.1z"/>
		
			<linearGradient id="SVGID_00000172436596299729928950000015809304833292160385_" gradientUnits="userSpaceOnUse" x1="39.4306" y1="177.6244" x2="54.65" y2="177.6244" gradientTransform="matrix(1 0 0 -1 0 199.89)">
			<stop  offset="0" style="stop-color:#5D3F0F"/>
			<stop  offset="0.58" style="stop-color:#EFC553"/>
			<stop  offset="0.87" style="stop-color:#886723"/>
			<stop  offset="1" style="stop-color:#5D3F0F"/>
		</linearGradient>
		<path style="fill:url(#SVGID_00000172436596299729928950000015809304833292160385_);" d="M54.7,14.7c0,0-1.1,15.2-15.2,15.1
			c-0.8-7.2,11.4-14,11.4-14s-3.3,3.3-4.3,7.6C48.9,22.8,51.8,20.7,54.7,14.7z"/>
		
			<linearGradient id="SVGID_00000015315961362909620220000006645132957261639857_" gradientUnits="userSpaceOnUse" x1="52.0106" y1="178.7844" x2="67.23" y2="178.7844" gradientTransform="matrix(1 0 0 -1 0 199.89)">
			<stop  offset="0" style="stop-color:#5D3F0F"/>
			<stop  offset="0.58" style="stop-color:#EFC553"/>
			<stop  offset="0.87" style="stop-color:#886723"/>
			<stop  offset="1" style="stop-color:#5D3F0F"/>
		</linearGradient>
		<path style="fill:url(#SVGID_00000015315961362909620220000006645132957261639857_);" d="M67.2,13.6c0,0-1.1,15.2-15.2,15.1
			c-0.8-7.2,11.4-14,11.4-14s-3.3,3.3-4.3,7.6C61.5,21.7,64.4,19.6,67.2,13.6z"/>
		<g>
			
				<linearGradient id="SVGID_00000164513445897342964310000003123343858280990875_" gradientUnits="userSpaceOnUse" x1="139.65" y1="185.8726" x2="190.94" y2="185.8726" gradientTransform="matrix(1 0 0 -1 0 199.89)">
				<stop  offset="0" style="stop-color:#5D3F0F"/>
				<stop  offset="0.58" style="stop-color:#EFC553"/>
				<stop  offset="0.87" style="stop-color:#886723"/>
				<stop  offset="1" style="stop-color:#5D3F0F"/>
			</linearGradient>
			<path style="fill:url(#SVGID_00000164513445897342964310000003123343858280990875_);" d="M190.9,5.4c0,0-2.8,9.6-13.3,15.8
				s-24.5-9.6-38-10.4c6-0.6,15.6-0.1,24.4,4.6S186.6,11.4,190.9,5.4L190.9,5.4z"/>
			<g>
				
					<linearGradient id="SVGID_00000013150578244777493790000017855440471684695732_" gradientUnits="userSpaceOnUse" x1="114.66" y1="185.7218" x2="229.697" y2="185.7218" gradientTransform="matrix(1 0 0 -1 0 199.89)">
					<stop  offset="0" style="stop-color:#5D3F0F"/>
					<stop  offset="0.58" style="stop-color:#EFC553"/>
					<stop  offset="0.87" style="stop-color:#886723"/>
					<stop  offset="1" style="stop-color:#5D3F0F"/>
				</linearGradient>
				<path style="fill:url(#SVGID_00000013150578244777493790000017855440471684695732_);" d="M218.7,13.8c-0.2-0.9-0.7-1.6-1.4-2.2
					c-0.7-0.5-1.6-0.7-2.5-0.6c-0.9,0.1-1.7,0.3-2.4,0.8c-0.7,0.5-1.2,1.2-1.5,2c-0.7,1.6-0.8,3.4-0.3,5c0.5,1.6,1.6,3,3,3.9
					c2.8,2,6.6,1.9,9.6,0.4c1.5-0.8,2.8-1.9,3.7-3.2c0.9-1.4,1.4-3,1.4-4.6c0.1-3.3-1.8-6.5-4.3-8.7c-2.5-2.2-5.7-3.6-9.1-4.3
					c-1.7-0.3-3.4-0.5-5.1-0.5c-1.7,0-3.4,0.2-5.1,0.4c-3.4,0.5-6.8,1.5-10,2.7c-3.3,1.2-6.4,2.7-9.6,4.3c-3.2,1.6-6.4,3.1-9.6,4.6
					c-6.4,3-12.9,5.9-19.6,8.4c-6.7,2.5-13.5,4.6-20.6,5.6c-1.8,0.2-3.6,0.4-5.3,0.4c-1.8,0.1-3.6,0-5.3-0.3
					c-3.6-0.4-6.9-1.7-10-3.5c3.2,1.6,6.6,2.7,10.1,3c3.5,0.3,7,0,10.5-0.6c6.9-1.2,13.6-3.5,20.2-6.1c6.5-2.6,13-5.5,19.3-8.6
					c3.2-1.5,6.4-3.1,9.5-4.7c3.1-1.6,6.4-3.2,9.8-4.4c3.4-1.2,6.9-2.2,10.5-2.7c1.8-0.2,3.6-0.4,5.4-0.4c1.8,0,3.6,0.2,5.4,0.6
					c3.6,0.7,7.1,2.3,9.9,4.8c1.4,1.3,2.5,2.8,3.3,4.5c0.8,1.7,1.3,3.6,1.2,5.5c-0.1,1.9-0.7,3.8-1.8,5.3c-1.1,1.5-2.6,2.8-4.3,3.6
					c-1.7,0.8-3.6,1.2-5.4,1.1c-1.9-0.1-3.7-0.7-5.2-1.8c-1.5-1.1-2.7-2.7-3.1-4.5c-0.5-1.8-0.3-3.7,0.5-5.4c0.4-0.8,1-1.6,1.8-2.1
					c0.8-0.5,1.7-0.7,2.6-0.8c0.9,0,1.8,0.2,2.6,0.7C218,12.1,218.5,12.9,218.7,13.8L218.7,13.8z"/>
				
					<linearGradient id="SVGID_00000037656237539229078780000008105526274867436735_" gradientUnits="userSpaceOnUse" x1="211.25" y1="185.34" x2="218.81" y2="185.34" gradientTransform="matrix(1 0 0 -1 0 199.89)">
					<stop  offset="0" style="stop-color:#5D3F0F"/>
					<stop  offset="0.58" style="stop-color:#EFC553"/>
					<stop  offset="0.87" style="stop-color:#886723"/>
					<stop  offset="1" style="stop-color:#5D3F0F"/>
				</linearGradient>
				<path style="fill:url(#SVGID_00000037656237539229078780000008105526274867436735_);" d="M211.2,14.5c0,2.1,1.7,3.8,3.8,3.8
					s3.8-1.7,3.8-3.8s-1.7-3.8-3.8-3.8S211.2,12.5,211.2,14.5z"/>
				
					<linearGradient id="SVGID_00000008853995916269749020000009921539474980908963_" gradientUnits="userSpaceOnUse" x1="0" y1="176.5576" x2="116.37" y2="176.5576" gradientTransform="matrix(1 0 0 -1 0 199.89)">
					<stop  offset="0" style="stop-color:#5D3F0F"/>
					<stop  offset="0.58" style="stop-color:#EFC553"/>
					<stop  offset="0.87" style="stop-color:#886723"/>
					<stop  offset="1" style="stop-color:#5D3F0F"/>
				</linearGradient>
				<path style="fill:url(#SVGID_00000008853995916269749020000009921539474980908963_);" d="M116.4,25.4c0,0-38.9-21.9-75.7-11
					C17.8,20.9,11.7,32.7,0,34.4c5,2.5,17.8-0.7,22.7-5.3c-2.7,4.5-1.4,6.2-1.4,6.2s5.8-3.4,9-9.8c-0.9,3.6-1.7,7.6-1.7,7.6
					s8.9-4.4,12-14.7c0.6-0.9,13.3-4.5,30.4-4.1C88.1,14.7,108.8,22.8,116.4,25.4z"/>
				
					<linearGradient id="SVGID_00000132072504187315040060000015874056733610867340_" gradientUnits="userSpaceOnUse" x1="106.4632" y1="184.4514" x2="146.62" y2="184.4514" gradientTransform="matrix(1 0 0 -1 0 199.89)">
					<stop  offset="0" style="stop-color:#5D3F0F"/>
					<stop  offset="0.58" style="stop-color:#EFC553"/>
					<stop  offset="0.87" style="stop-color:#886723"/>
					<stop  offset="1" style="stop-color:#5D3F0F"/>
				</linearGradient>
				<path style="fill:url(#SVGID_00000132072504187315040060000015874056733610867340_);" d="M146.6,24.7c0,0-15.2,4.2-19.2-8.7
					c-2.5,1.8,0,6.8,0,6.8c-3.5-1.1-7.8-4.6-8.2-8.3c-2.2,1.5-1.5,6.8-1.5,6.8c-3.8-2.6-10-12.7-5.2-18.5c-7.7,4.8-7.9,14-2.1,19.9
					C118.8,30.9,136.5,28.3,146.6,24.7L146.6,24.7z"/>
			</g>
		</g>
	</g>
</g>
<g>
	<g>
		
			<linearGradient id="SVGID_00000022547097659266062910000004235032781787716520_" gradientUnits="userSpaceOnUse" x1="255.05" y1="724.9944" x2="270.2694" y2="724.9944" gradientTransform="matrix(-1 0 0 1 309.7 -546.82)">
			<stop  offset="0" style="stop-color:#5D3F0F"/>
			<stop  offset="0.58" style="stop-color:#EFC553"/>
			<stop  offset="0.87" style="stop-color:#886723"/>
			<stop  offset="1" style="stop-color:#5D3F0F"/>
		</linearGradient>
		<path style="fill:url(#SVGID_00000022547097659266062910000004235032781787716520_);" d="M54.7,185.7c0,0-1.1-15.2-15.2-15.1
			c-0.8,7.2,11.4,14,11.4,14s-3.3-3.3-4.3-7.6C48.9,177.6,51.8,179.7,54.7,185.7z"/>
		
			<linearGradient id="SVGID_00000083077937238061634410000002871985239386023296_" gradientUnits="userSpaceOnUse" x1="242.47" y1="726.1644" x2="257.6894" y2="726.1644" gradientTransform="matrix(-1 0 0 1 309.7 -546.82)">
			<stop  offset="0" style="stop-color:#5D3F0F"/>
			<stop  offset="0.58" style="stop-color:#EFC553"/>
			<stop  offset="0.87" style="stop-color:#886723"/>
			<stop  offset="1" style="stop-color:#5D3F0F"/>
		</linearGradient>
		<path style="fill:url(#SVGID_00000083077937238061634410000002871985239386023296_);" d="M67.2,186.9c0,0-1.1-15.2-15.2-15.1
			c-0.8,7.2,11.4,14,11.4,14s-3.3-3.3-4.3-7.6C61.5,178.8,64.4,180.9,67.2,186.9L67.2,186.9z"/>
		
			<linearGradient id="SVGID_00000181770969740979497410000005067396512932742799_" gradientUnits="userSpaceOnUse" x1="232.7093" y1="731.0135" x2="306.6533" y2="731.0135" gradientTransform="matrix(-1 0 0 1 309.7 -546.82)">
			<stop  offset="0" style="stop-color:#5D3F0F"/>
			<stop  offset="0.58" style="stop-color:#EFC553"/>
			<stop  offset="0.87" style="stop-color:#886723"/>
			<stop  offset="1" style="stop-color:#5D3F0F"/>
		</linearGradient>
		<path style="fill:url(#SVGID_00000181770969740979497410000005067396512932742799_);" d="M9,176.6c1.6,0,3.4,0.4,5.6,1.1
			c2.1,0.7,4.6,1.8,7.4,3.1c6.9,3.1,15.6,7,26.9,8.9c15.7,2.7,27.4-0.5,27.5-0.6c0.3-0.1,0.5,0.1,0.6,0.3c0.1,0.3-0.1,0.5-0.3,0.6
			c-0.1,0-12,3.3-28,0.6c-11.4-2-20.5-6-27.1-9c-2.8-1.3-5.2-2.3-7.3-3.1c-8.2-2.8-9.6,0.8-10,2c-0.4,1.1-0.2,2.3,0.7,3.2
			c0.9,0.9,2.1,1.2,3.2,0.8c1.2-0.4,1.4-1.4,1.3-2.1s-0.7-1.6-1.7-1.5c-0.6,0-0.9,0.2-1.1,0.5c-0.3,0.4-0.1,1.1-0.1,1.1
			c0.1,0.3-0.1,0.5-0.3,0.6c-0.3,0.1-0.5-0.1-0.6-0.3c0-0.1-0.3-1.1,0.3-2c0.4-0.5,1-0.8,1.9-0.9c1.5-0.1,2.5,1.1,2.8,2.3
			s-0.3,2.7-1.9,3.3c-1.5,0.5-3.1,0.1-4.3-1c-1.1-1.1-1.5-2.8-0.9-4.3C4.2,177.8,6.1,176.6,9,176.6L9,176.6z"/>
		
			<linearGradient id="SVGID_00000140697677273700389200000018199103719304190857_" gradientUnits="userSpaceOnUse" x1="202.91" y1="735.3204" x2="222.8783" y2="735.3204" gradientTransform="matrix(-1 0 0 1 309.7 -546.82)">
			<stop  offset="0" style="stop-color:#5D3F0F"/>
			<stop  offset="0.58" style="stop-color:#EFC553"/>
			<stop  offset="0.87" style="stop-color:#886723"/>
			<stop  offset="1" style="stop-color:#5D3F0F"/>
		</linearGradient>
		<path style="fill:url(#SVGID_00000140697677273700389200000018199103719304190857_);" d="M106.8,179.8c0,0-2.6,18.7-20,17.3
			c-0.4-9,15.2-16.3,15.2-16.3s-4.3,3.8-5.9,9C99.1,189.3,102.8,187,106.8,179.8L106.8,179.8z"/>
		
			<linearGradient id="SVGID_00000103246907331885902980000003514210888849681053_" gradientUnits="userSpaceOnUse" x1="218.89" y1="738.5906" x2="243.44" y2="738.5906" gradientTransform="matrix(-1 0 0 1 309.7 -546.82)">
			<stop  offset="0" style="stop-color:#5D3F0F"/>
			<stop  offset="0.58" style="stop-color:#EFC553"/>
			<stop  offset="0.87" style="stop-color:#886723"/>
			<stop  offset="1" style="stop-color:#5D3F0F"/>
		</linearGradient>
		<path style="fill:url(#SVGID_00000103246907331885902980000003514210888849681053_);" d="M90.8,186.3c0,0-8.6,16.8-24.5,9.8
			c2.6-8.6,19.8-10.4,19.8-10.4s-5.3,2.1-8.5,6.6C80.4,192.8,84.7,191.8,90.8,186.3L90.8,186.3z"/>
		
			<linearGradient id="SVGID_00000114778991106817544870000012010285576959122077_" gradientUnits="userSpaceOnUse" x1="130.0613" y1="739.2376" x2="148.7936" y2="739.2376" gradientTransform="matrix(-1 0 0 1 309.7 -546.82)">
			<stop  offset="0" style="stop-color:#5D3F0F"/>
			<stop  offset="0.58" style="stop-color:#EFC553"/>
			<stop  offset="0.87" style="stop-color:#886723"/>
			<stop  offset="1" style="stop-color:#5D3F0F"/>
		</linearGradient>
		<path style="fill:url(#SVGID_00000114778991106817544870000012010285576959122077_);" d="M170.5,186.9c4.5,0,8.6,1.9,8.9,2
			c0.2,0.1,0.4,0.4,0.2,0.7s-0.4,0.4-0.7,0.2c-0.1-0.1-9.9-4.6-15.6,0.6c-1.6,1.4-1.5,3-1.3,3.8c0.3,1.3,1.3,2.4,2.4,2.7
			c1.1,0.3,2.2-0.3,2.6-0.9c0.5-0.7,0.4-1.6-0.2-2.3c-0.4-0.5-1-1-1.6-0.6c-0.5,0.3-0.8,0.9-0.7,1.3c0.2,0.6,0.8,0.6,0.9,0.6
			c0.3-0.1,0.5,0.1,0.6,0.4c0.1,0.3-0.1,0.5-0.4,0.6c-0.7,0.2-1.8-0.1-2.1-1.3c-0.2-0.9,0.3-2,1.2-2.4c0.9-0.5,2-0.1,2.9,0.9
			c0.9,1.1,0.9,2.4,0.2,3.5c-0.8,1.2-2.3,1.8-3.7,1.4c-1.5-0.4-2.7-1.8-3.1-3.4c-0.4-1.7,0.2-3.5,1.6-4.8
			C165,187.5,167.8,186.9,170.5,186.9L170.5,186.9z"/>
		<g>
			
				<linearGradient id="SVGID_00000060747074661311626390000007535219583465770369_" gradientUnits="userSpaceOnUse" x1="118.77" y1="733.2526" x2="170.05" y2="733.2526" gradientTransform="matrix(-1 0 0 1 309.7 -546.82)">
				<stop  offset="0" style="stop-color:#5D3F0F"/>
				<stop  offset="0.58" style="stop-color:#EFC553"/>
				<stop  offset="0.87" style="stop-color:#886723"/>
				<stop  offset="1" style="stop-color:#5D3F0F"/>
			</linearGradient>
			<path style="fill:url(#SVGID_00000060747074661311626390000007535219583465770369_);" d="M190.9,195.1c0,0-2.8-9.6-13.3-15.8
				s-24.5,9.6-38,10.4c6,0.6,15.6,0.1,24.4-4.6C172.8,180.4,186.6,189.1,190.9,195.1L190.9,195.1z"/>
			<g>
				
					<linearGradient id="SVGID_00000045595120994853195360000013141480460107058609_" gradientUnits="userSpaceOnUse" x1="80.003" y1="733.0912" x2="195.03" y2="733.0912" gradientTransform="matrix(-1 0 0 1 309.7 -546.82)">
					<stop  offset="0" style="stop-color:#5D3F0F"/>
					<stop  offset="0.58" style="stop-color:#EFC553"/>
					<stop  offset="0.87" style="stop-color:#886723"/>
					<stop  offset="1" style="stop-color:#5D3F0F"/>
				</linearGradient>
				<path style="fill:url(#SVGID_00000045595120994853195360000013141480460107058609_);" d="M218.7,186.6c-0.2,0.9-0.6,1.7-1.4,2.2
					c-0.7,0.6-1.7,0.8-2.6,0.7c-0.9-0.1-1.8-0.2-2.6-0.8c-0.8-0.5-1.3-1.3-1.8-2.1c-0.8-1.6-1-3.6-0.5-5.4c0.5-1.8,1.7-3.4,3.1-4.5
					c1.5-1.1,3.3-1.8,5.2-1.8c1.9-0.1,3.7,0.3,5.4,1.1c1.7,0.8,3.2,2,4.3,3.6c1.1,1.5,1.7,3.4,1.8,5.3c0.1,1.9-0.4,3.8-1.2,5.5
					c-0.8,1.7-2,3.2-3.3,4.5c-2.8,2.5-6.3,4.1-9.9,4.8c-1.8,0.4-3.6,0.5-5.4,0.6c-1.8,0-3.6-0.1-5.4-0.4c-3.6-0.5-7.1-1.5-10.5-2.7
					c-3.4-1.2-6.6-2.9-9.8-4.4c-3.2-1.6-6.3-3.1-9.5-4.7c-6.4-3.1-12.8-6-19.3-8.6c-6.5-2.6-13.2-4.9-20.2-6.1
					c-3.4-0.6-7-0.9-10.5-0.6c-3.5,0.2-6.9,1.4-10.1,2.9c3.1-1.8,6.4-3.1,10-3.5c1.8-0.2,3.6-0.3,5.4-0.3c1.8,0,3.6,0.2,5.3,0.4
					c7.1,1,13.9,3.2,20.6,5.6c6.7,2.5,13.1,5.4,19.6,8.4c3.2,1.5,6.4,3.1,9.6,4.6c3.2,1.6,6.3,3.1,9.6,4.3c3.3,1.2,6.6,2.2,10,2.7
					c1.7,0.2,3.4,0.4,5.1,0.4c1.7,0,3.4-0.2,5.1-0.5c3.3-0.6,6.6-2,9.1-4.3c2.5-2.2,4.3-5.3,4.3-8.7c0-1.6-0.5-3.3-1.4-4.6
					c-0.9-1.4-2.2-2.5-3.7-3.2c-3-1.5-6.8-1.6-9.6,0.4c-1.4,0.9-2.5,2.3-3,3.9c-0.5,1.6-0.4,3.4,0.3,5c0.4,0.8,0.9,1.5,1.5,2
					c0.7,0.5,1.6,0.7,2.4,0.8c0.9,0.1,1.8-0.1,2.5-0.6S218.5,187.5,218.7,186.6L218.7,186.6z"/>
				
					<linearGradient id="SVGID_00000132064222210812615250000009077731411823265214_" gradientUnits="userSpaceOnUse" x1="90.89" y1="732.71" x2="98.44" y2="732.71" gradientTransform="matrix(-1 0 0 1 309.7 -546.82)">
					<stop  offset="0" style="stop-color:#5D3F0F"/>
					<stop  offset="0.58" style="stop-color:#EFC553"/>
					<stop  offset="0.87" style="stop-color:#886723"/>
					<stop  offset="1" style="stop-color:#5D3F0F"/>
				</linearGradient>
				<path style="fill:url(#SVGID_00000132064222210812615250000009077731411823265214_);" d="M211.2,185.9c0-2.1,1.7-3.8,3.8-3.8
					s3.8,1.7,3.8,3.8s-1.7,3.8-3.8,3.8S211.2,188,211.2,185.9z"/>
				
					<linearGradient id="SVGID_00000047769266162057853580000003466045145136656563_" gradientUnits="userSpaceOnUse" x1="193.32" y1="723.9301" x2="309.7" y2="723.9301" gradientTransform="matrix(-1 0 0 1 309.7 -546.82)">
					<stop  offset="0" style="stop-color:#5D3F0F"/>
					<stop  offset="0.58" style="stop-color:#EFC553"/>
					<stop  offset="0.87" style="stop-color:#886723"/>
					<stop  offset="1" style="stop-color:#5D3F0F"/>
				</linearGradient>
				<path style="fill:url(#SVGID_00000047769266162057853580000003466045145136656563_);" d="M116.4,175c0,0-38.9,21.9-75.7,11
					c-22.8-6.4-29-18.3-40.7-19.9c5-2.5,17.8,0.7,22.7,5.3c-2.7-4.5-1.4-6.2-1.4-6.2s5.8,3.4,9,9.8c-0.9-3.6-1.7-7.6-1.7-7.6
					s8.9,4.4,12,14.7c0.6,0.9,13.3,4.5,30.4,4.1S108.8,177.6,116.4,175L116.4,175z"/>
				
					<linearGradient id="SVGID_00000101078277234670630180000018131412601506141060_" gradientUnits="userSpaceOnUse" x1="163.08" y1="731.8214" x2="203.2368" y2="731.8214" gradientTransform="matrix(-1 0 0 1 309.7 -546.82)">
					<stop  offset="0" style="stop-color:#5D3F0F"/>
					<stop  offset="0.58" style="stop-color:#EFC553"/>
					<stop  offset="0.87" style="stop-color:#886723"/>
					<stop  offset="1" style="stop-color:#5D3F0F"/>
				</linearGradient>
				<path style="fill:url(#SVGID_00000101078277234670630180000018131412601506141060_);" d="M146.6,175.7c0,0-15.2-4.2-19.2,8.8
					c-2.5-1.8,0-6.8,0-6.8c-3.5,1.1-7.8,4.6-8.2,8.3c-2.2-1.5-1.5-6.8-1.5-6.8c-3.8,2.6-10,12.7-5.2,18.5c-7.7-4.8-7.9-14-2.1-19.9
					C118.8,169.6,136.5,172.2,146.6,175.7L146.6,175.7z"/>
			</g>
		</g>
	</g>
	<g>
		
			<linearGradient id="SVGID_00000137828150800669706960000000405372108653448077_" gradientUnits="userSpaceOnUse" x1="18.9064" y1="739.2576" x2="37.6287" y2="739.2576" gradientTransform="matrix(-1 0 0 1 309.7 -546.82)">
			<stop  offset="0" style="stop-color:#5D3F0F"/>
			<stop  offset="0.58" style="stop-color:#EFC553"/>
			<stop  offset="0.87" style="stop-color:#886723"/>
			<stop  offset="1" style="stop-color:#5D3F0F"/>
		</linearGradient>
		<path style="fill:url(#SVGID_00000137828150800669706960000000405372108653448077_);" d="M281.2,186.9c2.7,0,5.5,0.7,7.8,2.7
			c1.4,1.3,2,3.1,1.6,4.8c-0.4,1.7-1.6,3-3.1,3.4c-1.4,0.4-2.9-0.1-3.7-1.4c-0.7-1.1-0.6-2.4,0.2-3.5c0.8-1.1,1.9-1.4,2.9-0.9
			c0.9,0.4,1.4,1.5,1.2,2.4c-0.3,1.2-1.5,1.4-2.1,1.3c-0.3-0.1-0.4-0.3-0.4-0.6s0.3-0.4,0.6-0.4c0.2,0,0.8,0.1,0.9-0.6
			c0.1-0.4-0.2-1-0.7-1.3c-0.6-0.3-1.2,0.2-1.6,0.6c-0.6,0.7-0.6,1.6-0.2,2.3c0.5,0.7,1.5,1.3,2.6,0.9c1.1-0.3,2.1-1.4,2.4-2.7
			c0.2-0.8,0.3-2.4-1.3-3.8c-5.7-5.1-15.5-0.6-15.6-0.6c-0.2,0.1-0.5,0-0.7-0.2c-0.1-0.2,0-0.6,0.2-0.7
			C272.6,188.8,276.7,186.9,281.2,186.9L281.2,186.9z"/>
		
			<linearGradient id="SVGID_00000129190083173919145700000010752276670584985779_" gradientUnits="userSpaceOnUse" x1="-138.9633" y1="731.0185" x2="-64.9985" y2="731.0185" gradientTransform="matrix(-1 0 0 1 309.7 -546.82)">
			<stop  offset="0" style="stop-color:#5D3F0F"/>
			<stop  offset="0.58" style="stop-color:#EFC553"/>
			<stop  offset="0.87" style="stop-color:#886723"/>
			<stop  offset="1" style="stop-color:#5D3F0F"/>
		</linearGradient>
		<path style="fill:url(#SVGID_00000129190083173919145700000010752276670584985779_);" d="M442.7,176.6c2.9,0,4.8,1.2,5.7,3.7
			c0.5,1.5,0.2,3.1-0.9,4.3c-1.1,1.2-2.8,1.6-4.3,1c-1.6-0.6-2.1-2.1-1.9-3.3c0.2-1.2,1.3-2.4,2.8-2.3c0.9,0.1,1.5,0.4,1.9,0.9
			c0.6,0.8,0.3,1.9,0.3,2c-0.1,0.3-0.4,0.4-0.6,0.3s-0.4-0.4-0.3-0.6c0,0,0.2-0.7-0.1-1.1c-0.2-0.3-0.6-0.4-1.1-0.5
			c-1-0.1-1.6,0.8-1.7,1.5s0.1,1.7,1.3,2.1c1.1,0.4,2.4,0.1,3.2-0.8c0.9-0.9,1.1-2.1,0.7-3.2c-0.4-1.2-1.8-4.8-10-2
			c-2.1,0.7-4.5,1.8-7.3,3.1c-6.6,3-15.7,7-27.1,9c-15.9,2.7-27.9-0.6-28-0.6c-0.3-0.1-0.4-0.4-0.3-0.6c0.1-0.3,0.4-0.4,0.6-0.3
			c0.1,0,11.8,3.3,27.5,0.6c11.3-1.9,19.9-5.8,26.9-8.9c2.8-1.3,5.3-2.4,7.4-3.1C439.3,177,441.1,176.6,442.7,176.6L442.7,176.6z"/>
		
			<linearGradient id="SVGID_00000022549781697621088350000003769762476945171642_" gradientUnits="userSpaceOnUse" x1="-55.1783" y1="735.3204" x2="-35.21" y2="735.3204" gradientTransform="matrix(-1 0 0 1 309.7 -546.82)">
			<stop  offset="0" style="stop-color:#5D3F0F"/>
			<stop  offset="0.58" style="stop-color:#EFC553"/>
			<stop  offset="0.87" style="stop-color:#886723"/>
			<stop  offset="1" style="stop-color:#5D3F0F"/>
		</linearGradient>
		<path style="fill:url(#SVGID_00000022549781697621088350000003769762476945171642_);" d="M344.9,179.8c0,0,2.6,18.7,20,17.3
			c0.4-9-15.2-16.3-15.2-16.3s4.3,3.8,5.9,9C352.6,189.3,348.9,187,344.9,179.8L344.9,179.8z"/>
		
			<linearGradient id="SVGID_00000103963532399374669970000016615925115498328220_" gradientUnits="userSpaceOnUse" x1="-75.74" y1="738.5906" x2="-51.19" y2="738.5906" gradientTransform="matrix(-1 0 0 1 309.7 -546.82)">
			<stop  offset="0" style="stop-color:#5D3F0F"/>
			<stop  offset="0.58" style="stop-color:#EFC553"/>
			<stop  offset="0.87" style="stop-color:#886723"/>
			<stop  offset="1" style="stop-color:#5D3F0F"/>
		</linearGradient>
		<path style="fill:url(#SVGID_00000103963532399374669970000016615925115498328220_);" d="M360.9,186.3c0,0,8.6,16.8,24.5,9.8
			c-2.6-8.6-19.8-10.4-19.8-10.4s5.3,2.1,8.5,6.6C371.3,192.8,367,191.8,360.9,186.3L360.9,186.3z"/>
		
			<linearGradient id="SVGID_00000050653621916195975120000007077412075438054276_" gradientUnits="userSpaceOnUse" x1="-102.5694" y1="724.9944" x2="-87.35" y2="724.9944" gradientTransform="matrix(-1 0 0 1 309.7 -546.82)">
			<stop  offset="0" style="stop-color:#5D3F0F"/>
			<stop  offset="0.58" style="stop-color:#EFC553"/>
			<stop  offset="0.87" style="stop-color:#886723"/>
			<stop  offset="1" style="stop-color:#5D3F0F"/>
		</linearGradient>
		<path style="fill:url(#SVGID_00000050653621916195975120000007077412075438054276_);" d="M397,185.7c0,0,1.1-15.2,15.2-15.1
			c0.8,7.2-11.4,14-11.4,14s3.3-3.3,4.3-7.6C402.8,177.6,399.9,179.7,397,185.7z"/>
		
			<linearGradient id="SVGID_00000052091608507244925180000001342500431100956818_" gradientUnits="userSpaceOnUse" x1="-89.9894" y1="726.1644" x2="-74.77" y2="726.1644" gradientTransform="matrix(-1 0 0 1 309.7 -546.82)">
			<stop  offset="0" style="stop-color:#5D3F0F"/>
			<stop  offset="0.58" style="stop-color:#EFC553"/>
			<stop  offset="0.87" style="stop-color:#886723"/>
			<stop  offset="1" style="stop-color:#5D3F0F"/>
		</linearGradient>
		<path style="fill:url(#SVGID_00000052091608507244925180000001342500431100956818_);" d="M384.5,186.9c0,0,1.1-15.2,15.2-15.1
			c0.8,7.2-11.4,14-11.4,14s3.3-3.3,4.3-7.6C390.2,178.8,387.3,180.9,384.5,186.9L384.5,186.9z"/>
		<g>
			
				<linearGradient id="SVGID_00000072266478657431035580000002109600894920202150_" gradientUnits="userSpaceOnUse" x1="-2.35" y1="733.2526" x2="48.94" y2="733.2526" gradientTransform="matrix(-1 0 0 1 309.7 -546.82)">
				<stop  offset="0" style="stop-color:#5D3F0F"/>
				<stop  offset="0.58" style="stop-color:#EFC553"/>
				<stop  offset="0.87" style="stop-color:#886723"/>
				<stop  offset="1" style="stop-color:#5D3F0F"/>
			</linearGradient>
			<path style="fill:url(#SVGID_00000072266478657431035580000002109600894920202150_);" d="M260.8,195.1c0,0,2.8-9.6,13.3-15.8
				s24.5,9.6,38,10.4c-6,0.6-15.6,0.1-24.4-4.6C278.9,180.4,265.1,189.1,260.8,195.1L260.8,195.1z"/>
			<g>
				
					<linearGradient id="SVGID_00000157996862750512955840000017992220494139103932_" gradientUnits="userSpaceOnUse" x1="-27.34" y1="733.0919" x2="87.697" y2="733.0919" gradientTransform="matrix(-1 0 0 1 309.7 -546.82)">
					<stop  offset="0" style="stop-color:#5D3F0F"/>
					<stop  offset="0.58" style="stop-color:#EFC553"/>
					<stop  offset="0.87" style="stop-color:#886723"/>
					<stop  offset="1" style="stop-color:#5D3F0F"/>
				</linearGradient>
				<path style="fill:url(#SVGID_00000157996862750512955840000017992220494139103932_);" d="M233,186.6c0.2,0.9,0.7,1.6,1.4,2.1
					c0.7,0.5,1.6,0.7,2.5,0.6c0.9-0.1,1.7-0.3,2.4-0.8c0.7-0.5,1.2-1.2,1.5-2c0.7-1.6,0.8-3.4,0.3-5c-0.5-1.6-1.6-3-3-3.9
					c-2.8-1.9-6.6-1.9-9.6-0.4c-1.5,0.8-2.8,1.9-3.7,3.2c-0.9,1.4-1.4,3-1.4,4.6c-0.1,3.3,1.8,6.5,4.3,8.7c2.5,2.2,5.7,3.6,9.1,4.3
					c1.7,0.3,3.4,0.5,5.1,0.5c1.7,0,3.4-0.2,5.1-0.4c3.4-0.5,6.8-1.5,10-2.7c3.3-1.2,6.4-2.7,9.6-4.3c3.2-1.6,6.4-3.1,9.6-4.6
					c6.4-3,12.9-5.9,19.6-8.4c6.7-2.4,13.5-4.6,20.6-5.6c1.8-0.2,3.5-0.4,5.3-0.4c1.8-0.1,3.6,0,5.4,0.3c3.6,0.4,7,1.7,10,3.5
					c-3.2-1.6-6.6-2.7-10.1-2.9c-3.5-0.3-7,0-10.5,0.6c-6.9,1.2-13.6,3.5-20.2,6.1c-6.5,2.6-13,5.5-19.3,8.6
					c-3.2,1.5-6.4,3.1-9.5,4.7c-3.1,1.6-6.4,3.2-9.8,4.4c-3.4,1.2-6.9,2.2-10.5,2.7c-1.8,0.2-3.6,0.4-5.4,0.4
					c-1.8,0-3.6-0.2-5.4-0.6c-3.6-0.7-7.1-2.3-9.9-4.8c-1.4-1.3-2.5-2.8-3.3-4.5c-0.8-1.7-1.3-3.6-1.2-5.5c0.1-1.9,0.7-3.8,1.8-5.3
					c1.1-1.6,2.6-2.8,4.3-3.6c1.7-0.8,3.6-1.2,5.4-1.1c1.9,0.1,3.7,0.7,5.2,1.8c1.5,1.1,2.7,2.7,3.1,4.5c0.5,1.8,0.3,3.7-0.5,5.4
					c-0.4,0.8-1,1.6-1.8,2.1c-0.8,0.5-1.7,0.7-2.6,0.8c-0.9,0-1.8-0.2-2.6-0.7C233.7,188.3,233.2,187.5,233,186.6L233,186.6z"/>
				
					<linearGradient id="SVGID_00000116198295778562717130000013141205604487113354_" gradientUnits="userSpaceOnUse" x1="69.25" y1="732.71" x2="76.81" y2="732.71" gradientTransform="matrix(-1 0 0 1 309.7 -546.82)">
					<stop  offset="0" style="stop-color:#5D3F0F"/>
					<stop  offset="0.58" style="stop-color:#EFC553"/>
					<stop  offset="0.87" style="stop-color:#886723"/>
					<stop  offset="1" style="stop-color:#5D3F0F"/>
				</linearGradient>
				<path style="fill:url(#SVGID_00000116198295778562717130000013141205604487113354_);" d="M240.4,185.9c0-2.1-1.7-3.8-3.8-3.8
					s-3.8,1.7-3.8,3.8s1.7,3.8,3.8,3.8S240.4,188,240.4,185.9z"/>
				
					<linearGradient id="SVGID_00000018198030929197527680000001548705169785674174_" gradientUnits="userSpaceOnUse" x1="-141.9999" y1="723.9301" x2="-25.6299" y2="723.9301" gradientTransform="matrix(-1 0 0 1 309.7 -546.82)">
					<stop  offset="0" style="stop-color:#5D3F0F"/>
					<stop  offset="0.58" style="stop-color:#EFC553"/>
					<stop  offset="0.87" style="stop-color:#886723"/>
					<stop  offset="1" style="stop-color:#5D3F0F"/>
				</linearGradient>
				<path style="fill:url(#SVGID_00000018198030929197527680000001548705169785674174_);" d="M335.3,175c0,0,38.9,21.9,75.7,11
					c22.8-6.4,29-18.3,40.7-19.9c-5-2.5-17.8,0.7-22.7,5.3c2.7-4.5,1.4-6.2,1.4-6.2s-5.8,3.4-9,9.8c0.9-3.6,1.7-7.6,1.7-7.6
					s-8.9,4.4-12,14.7c-0.6,0.9-13.3,4.5-30.4,4.1S342.9,177.6,335.3,175L335.3,175z"/>
				
					<linearGradient id="SVGID_00000026880342135627597170000000264161320582857627_" gradientUnits="userSpaceOnUse" x1="-35.5368" y1="731.8214" x2="4.62" y2="731.8214" gradientTransform="matrix(-1 0 0 1 309.7 -546.82)">
					<stop  offset="0" style="stop-color:#5D3F0F"/>
					<stop  offset="0.58" style="stop-color:#EFC553"/>
					<stop  offset="0.87" style="stop-color:#886723"/>
					<stop  offset="1" style="stop-color:#5D3F0F"/>
				</linearGradient>
				<path style="fill:url(#SVGID_00000026880342135627597170000000264161320582857627_);" d="M305.1,175.7c0,0,15.2-4.2,19.2,8.8
					c2.5-1.8,0-6.8,0-6.8c3.5,1.1,7.8,4.6,8.2,8.3c2.2-1.5,1.5-6.8,1.5-6.8c3.8,2.6,10,12.7,5.2,18.5c7.7-4.8,7.9-14,2.1-19.9
					C333,169.6,315.2,172.2,305.1,175.7L305.1,175.7z"/>
			</g>
		</g>
	</g>
</g>
<g>
	<path class="st44" d="M47.1,93.4h9.4l5.6,18.5h0.1l5.6-18.5h9.1v1h-3.9v24.1h3.9v1H64.6v-1h4V94h-0.1l-7.8,25.6h-0.9L52.1,94H52
		v24.6h4v1h-8.9v-1H51V94.4h-3.9L47.1,93.4L47.1,93.4z"/>
	<path class="st44" d="M85.2,118.6V94.4h-4.3v-1h13.2v1h-4.3v24.1h4.3v1H80.9v-1H85.2z"/>
	<path class="st44" d="M114,93.1l0.1,6.8h-0.9c-1.3-4.1-3.6-6.1-6.9-6.1c-1.8,0-3.2,0.5-4.2,1.5c-1,1-1.5,2.1-1.5,3.1
		c0,1,0.4,1.8,1.3,2.6s2.4,1.2,4.6,1.6c2.2,0.4,3.9,0.8,5.1,1.4s2.1,1.5,2.9,2.8s1.2,2.8,1.2,4.4c0,2.6-0.8,4.7-2.5,6.4
		s-3.7,2.6-6.2,2.6c-2,0-4-0.8-6-2.2l-1.8,1.6h-0.7v-7.3h0.8c0.8,2.3,1.8,4,3.2,5.2c1.4,1.2,2.9,1.7,4.5,1.7s3.1-0.5,4.5-1.6
		s2-2.4,2-4.1c0-1.4-0.5-2.5-1.4-3.5s-2.5-1.6-4.6-1.9s-3.7-0.8-4.9-1.2c-1.1-0.5-2.1-1.3-2.9-2.5c-0.8-1.2-1.2-2.5-1.2-3.9
		c0-2,0.7-3.7,2.1-5.3s3.3-2.3,5.7-2.3c2,0,3.9,0.6,5.6,1.9c0.5-0.4,0.9-1,1.2-1.6L114,93.1L114,93.1z"/>
</g>
<g>
	<path class="st45" d="M217.7,144.3c0.5,0.4,0.7,0.8,0.7,1.1c0,0.4-0.4,0.6-1.2,0.6c-1,0-1.8,0-2.5-0.1c-3.5-0.2-5.7-0.3-6.6-0.3
		c-1.7,0-3,0-4.1,0.1c-1,0.1-2.2,0.2-3.6,0.2c-0.9,0-1.4-0.2-1.4-0.7c0-0.2,0.2-0.5,0.5-0.9c0.6-0.6,1.1-1,1.4-1.3
		c0.5-0.5,0.8-1.1,0.8-1.5c0-0.3-0.1-0.7-0.4-1.1c-1.1-1.6-3.1-4.5-5.9-8.7c-1.4-2.1-2.9-4.2-4.2-6.4c-2.2-3.5-4.4-7-6.6-10.7
		c-1.6-2.8-3.3-5.8-5-9.1c-2,1.6-4,3.4-6.1,5.6c-2.4,2.6-4.5,5.2-6.4,8.1c-2.4,3.6-4.2,7.1-5.5,10.5c-1.3,3.4-1.9,6.7-1.9,9.9
		c0,1.1,0.4,2.1,1.2,3c1,0.8,1.7,1.4,2.1,1.8c0.4,0.4,0.6,0.7,0.6,1c0,0.4-0.3,0.6-1,0.6c-0.4,0-1.4,0-3-0.1
		c-1.6-0.1-2.9-0.2-3.8-0.2c-1.3,0-2.4,0-3.3,0.1s-1.9,0.2-3,0.2c-0.9,0-1.4-0.3-1.4-0.8c0-0.2,0.1-0.4,0.4-0.7
		c1-0.6,1.9-1.2,2.5-1.6c1.1-0.9,1.9-1.9,2.1-3c0.7-2.8,1.8-6.2,3.5-10.3c1.9-4.4,3.7-8.1,5.5-10.9c2.5-3.8,4.7-6.8,6.8-9.2
		c2.1-2.3,4.9-5.1,8.6-8.2c-1.1-2.1-2.3-4.7-3.7-7.8c-1.8-3.9-3.2-7.5-4.3-10.7c-0.9-2.6-1.7-5.1-2.5-7.7s-1.4-5.2-2.1-7.8
		c-0.2-1-1.1-2.2-2.7-3.5c-1.1-0.9-2.1-1.8-3.2-2.7c-0.2-0.3-0.3-0.5-0.3-0.7c0-0.5,0.4-0.7,1.3-0.7c0.2,0,1.2,0.1,2.9,0.2
		c1.7,0.1,3.3,0.2,4.8,0.2c1.6,0,3,0,4-0.1c1-0.1,2.2-0.2,3.5-0.3c1,0,1.5,0.2,1.5,0.7c0,0.2-0.1,0.5-0.3,0.7l-2.6,2.7
		c-0.6,0.8-0.8,1.5-0.7,2.2c0.7,3.4,2.2,8.2,4.5,14.4s4.5,11.3,6.6,15.3c6.4-5.2,9.8-7.9,10.1-8.1c4.5-3.8,7.9-7.2,10.2-10
		c3.1-3.8,4.7-7.1,4.7-9.9c0-1.7-0.5-3-1.5-3.8s-2.3-1.3-3.9-1.3c-0.5,0-1.1,0-1.7,0.1c-0.6,0.1-1.2,0.3-1.9,0.8s-1.2,1.1-1.8,2
		c-0.3,0.5-0.6,1.1-0.7,1.8c-0.1,0.7-0.3,1.3-0.3,1.6s-0.2,0.5-0.5,0.5c-0.2,0-0.4-0.1-0.6-0.3c-0.4-0.4-0.8-1.1-1.1-1.9
		s-0.4-1.7-0.4-2.5c0-0.3,0.1-0.6,0.1-0.7c0-2.2,0.9-4.1,2.8-5.8s4.1-2.5,6.5-2.5c3.4,0,6,1,8,3s3,4.5,3,7.5c0,4.1-1.9,8.4-5.7,13.2
		c-2.7,3.3-6.8,7.2-12.1,11.6c-7,5.7-10.6,8.7-10.8,8.9c2.5,5.1,5.5,10.7,9.1,16.6c2.9,4.8,6,9.5,9.3,14.2c2.4,3.4,4.7,6.5,6.8,9.3
		c0.7,0.8,1.5,1.6,2.6,2.3C215.5,142.9,216.6,143.6,217.7,144.3L217.7,144.3z"/>
	<path class="st45" d="M289.8,71.4c0,3.9-1,8.3-3,13.2c-1.5,3.7-3.9,8.6-7.3,14.6c-3.1,5.3-6.1,10.5-9.2,15.8
		c-3,5.3-6,10.7-8.8,16.4c-2.1,4.2-4,8.1-5.6,11.7c-1.6,3.6-2.6,5.6-2.7,5.9c-0.2,0.3-0.4,0.5-0.6,0.5c-0.2,0-0.5-0.2-0.7-0.6
		c-0.9-1.6-2.6-5.2-4.8-10.7c-2.4-5.8-4.7-11.8-6.9-17.9c-2.7-7.4-4.8-13.7-6.3-18.8c-1.3-4.3-2.5-9-3.8-14.2c-1-4.3-2-8.7-2.9-13.1
		c-0.6-3-1.1-5.8-1.6-8.5c-0.2-0.9-1.1-2-2.6-3.1c-1.2-0.8-1.9-1.3-2-1.5c-0.3-0.3-0.4-0.6-0.4-0.9c0-0.5,0.4-0.7,1.3-0.7
		c0.2,0,1.2,0.1,3,0.2c1.7,0.1,3.3,0.2,4.8,0.2c1.8,0,3.2,0,4.3-0.1s2.2-0.2,3.6-0.3c0.7,0,1.1,0.2,1.1,0.7c0,0.3-0.1,0.5-0.3,0.7
		c-1.1,0.9-1.9,1.6-2.5,2.1c-1.1,1-1.6,1.9-1.5,2.8c0.4,3.7,1.2,8.4,2.5,13.9c1.1,4.9,2.7,10.8,4.7,17.5c2.1,7.4,4.4,14.5,6.9,21.2
		c2.4,6.8,4.7,12.2,6.7,16.3c1.1-2.9,2.4-6,4-9.3c1.8-3.8,3.5-7.3,5.4-10.7c2.8-5.1,5.6-10.2,8.4-15.2c3-5.7,5.2-10.5,6.6-14.6
		c1.8-5.1,2.8-9.8,2.8-14.1c0-4.6-0.8-8.4-2.5-11.2c-2.1-3.5-5.4-5.3-9.8-5.3c-2.4,0-4.5,0.6-6.1,1.8c-1.7,1.2-2.5,2.9-2.5,5
		c0,1.3,0.4,2.3,1,3.2c0.7,0.9,1.7,1.3,3,1.3c0.3,0,0.5-0.1,0.7-0.1c1-0.1,1.8-0.5,2.3-1.2c0.4-0.5,0.7-1,0.8-1.7s0.3-0.9,0.5-0.9
		c0.2,0,0.4,0.1,0.6,0.4c0.7,0.8,1,1.9,1,3.1c0,1.6-0.6,3-1.9,4.2s-2.7,1.7-4.4,1.7c-2.3,0-4.1-0.8-5.5-2.6
		c-1.4-1.7-2.1-3.9-2.1-6.6c0-3.3,1.5-6,4.5-8.1c3-2.1,6.5-3.1,10.7-3.1c5.1,0,9.3,2,12.6,6.2C288.3,61.3,289.9,66,289.8,71.4
		L289.8,71.4z"/>
</g>
<g>
	<path class="st44" d="M331.6,111.4h-8.3l-2.7,7.2h4.8v1H316v-1h3.6l9.5-25.7h0.6l9.1,25.7h3.5v1H330v-1h4.2L331.6,111.4
		L331.6,111.4z M323.7,110.4h7.6l-3.7-10.5h-0.1L323.7,110.4z"/>
	<path class="st44" d="M368,94.4v25.7h-0.8L350,94.3h-0.1v24.3h4.4v1H345v-1h3.9V94.4h-4.1v-1h10l12.2,18.3h0.1V94.4h-4.3v-1h9.3v1
		L368,94.4L368,94.4z M363.7,85.5h0.8c0,1.4-0.4,2.5-1.2,3.2c-0.8,0.7-1.6,1.1-2.5,1.1c-0.9,0-2-0.3-3.3-0.9
		c-1.3-0.6-2.2-0.9-2.7-0.9c-1,0-1.6,0.6-1.8,1.7h-0.8c0-1.5,0.4-2.6,1.1-3.3s1.6-1.1,2.6-1.1c0.9,0,2,0.3,3.2,0.8s2.2,0.8,2.7,0.8
		C362.8,87.2,363.4,86.6,363.7,85.5L363.7,85.5z"/>
	<path class="st44" d="M387.6,120.2c-3.4,0-6.2-1.4-8.6-4.2c-2.4-2.8-3.5-5.9-3.5-9.1c0-3.9,1.2-7.2,3.7-9.9s5.4-4.1,8.6-4.1
		c3.1,0,5.8,1.4,8.3,4.2s3.7,5.9,3.7,9.5s-1.2,6.8-3.7,9.6S390.8,120.2,387.6,120.2L387.6,120.2z M387.7,93.8c-1.4,0-2.7,0.3-3.9,1
		c-1.1,0.7-1.9,1.8-2.3,3.4s-0.6,4.5-0.6,8.5c0,2.8,0.1,5,0.4,6.7s0.8,3,1.8,4.1s2.5,1.6,4.5,1.6c1.2,0,2.5-0.3,3.8-1
		c1.2-0.7,2.1-2,2.5-3.9c0.4-1.9,0.6-4.9,0.6-8.9c0-3.7-0.2-6.2-0.7-7.6s-1.2-2.4-2.3-3S389.1,93.8,387.7,93.8L387.7,93.8z"/>
	<path class="st44" d="M419.7,93.1l0.1,6.8h-0.9c-1.3-4.1-3.6-6.1-6.9-6.1c-1.8,0-3.2,0.5-4.2,1.5c-1,1-1.5,2.1-1.5,3.1
		c0,1,0.4,1.8,1.3,2.6s2.4,1.2,4.6,1.6c2.2,0.4,3.9,0.8,5.1,1.4c1.2,0.6,2.1,1.5,2.9,2.8s1.2,2.8,1.2,4.4c0,2.6-0.8,4.7-2.5,6.4
		s-3.7,2.6-6.2,2.6c-2,0-4-0.8-6-2.2l-1.8,1.6h-0.7v-7.3h0.8c0.8,2.3,1.8,4,3.2,5.2s2.9,1.7,4.5,1.7s3.1-0.5,4.5-1.6
		c1.4-1.1,2-2.4,2-4.1c0-1.4-0.5-2.5-1.4-3.5s-2.5-1.6-4.6-1.9s-3.7-0.8-4.9-1.2c-1.1-0.5-2.1-1.3-2.9-2.5c-0.8-1.2-1.2-2.5-1.2-3.9
		c0-2,0.7-3.7,2.1-5.3s3.3-2.3,5.7-2.3c2,0,3.9,0.6,5.6,1.9c0.5-0.4,0.9-1,1.2-1.6L419.7,93.1L419.7,93.1z"/>
</g>
</svg>
