<?xml version="1.0" encoding="UTF-8"?>
<svg id="Capa_1" data-name="Capa 1" xmlns="http://www.w3.org/2000/svg" viewBox="0 0 380.33 408.84">
  <defs>
    <style>
      .cls-1 {
        fill: #fff;
        stroke-width: 0px;
      }
    </style>
  </defs>
  <path class="cls-1" d="M31.99,408.84c-4.46-2.74-5.52-6.88-5.51-11.87.11-31.8.06-63.61.06-95.41,0-1.59,0-3.18,0-5.36-5.2,2.39-9.9,4.77-14.77,6.75-6.59,2.69-12.75-1.92-11.64-8.56.62-3.72,3.43-5.44,6.54-6.9,18.76-8.76,37.52-17.55,56.27-26.32,15.87-7.42,31.71-14.92,47.65-22.18,2.84-1.29,3.87-2.72,3.85-5.9-.15-23.29-.02-46.57-.14-69.86-.02-4.56,1.4-8.12,4.54-11.42,20.37-21.39,40.65-42.88,60.89-64.4,1.15-1.23,2.27-3.09,2.29-4.68.18-13.17.1-26.35.08-39.52,0-.51-.13-1.02-.22-1.75-4.3-.25-8.53-.27-12.69-.81-3.71-.48-5.78-2.99-6.25-6.72-.47-3.75,1.12-6.56,4.44-8.11,1.62-.75,3.6-.88,5.43-.98,2.91-.15,5.83-.04,9.35-.04,0-5.89-.14-11.56.05-17.22.15-4.51,3.76-7.69,8.12-7.59,4.19.1,7.44,3.24,7.75,7.59.11,1.59.05,3.19.05,4.79,0,3.97,0,7.94,0,12.45,3.82,0,7.38-.16,10.91.04,5.02.29,8.24,3.46,8.34,7.88.1,4.48-2.59,7.48-7.48,8.19-1.31.19-2.65.2-3.98.22-2.39.03-4.77,0-7.53,0-.1,1.37-.25,2.51-.25,3.65-.02,12.38-.11,24.75.09,37.13.03,1.85,1.03,4.09,2.31,5.46,20.12,21.45,40.31,42.84,60.6,64.12,3.35,3.51,4.85,7.26,4.82,12.12-.15,23.15,0,46.31-.15,69.46-.02,3.18,1.03,4.58,3.85,5.89,34.2,15.85,68.34,31.85,102.48,47.83,1.56.73,3.15,1.46,4.55,2.44,3.43,2.39,4.49,6.26,2.88,9.82-1.68,3.69-5.55,5.73-9.56,4.27-5.33-1.94-10.44-4.47-16.3-7.04v4.85c0,31.94-.06,63.87.06,95.81.02,4.99-1.05,9.13-5.51,11.87H31.99ZM153.43,392.62v-4.58c0-19.69-.03-39.38.03-59.07.01-3.58.26-7.17.7-10.72,2.87-23.38,30.62-38.04,51.57-27.29,13.99,7.18,20.94,18.79,21.06,34.37.16,21.02.04,42.04.04,63.06,0,1.4,0,2.79,0,4.12h22.49c.06-1.34.16-2.4.16-3.45,0-74.37.02-148.74-.08-223.12,0-1.76-.85-3.93-2.05-5.21-18.01-19.23-36.15-38.33-54.23-57.48-.9-.95-1.55-2.13-2.82-3.89-1.84,2.21-2.95,3.68-4.21,5.02-17.54,18.58-35.06,37.16-52.69,55.65-1.9,1.99-2.68,3.94-2.68,6.67.06,73.84.05,147.68.06,221.52,0,1.42.12,2.83.19,4.41h22.45ZM293.67,392.67c0-1.86,0-3.3,0-4.75,0-9.18.02-18.37,0-27.55,0-3.87,1.12-7.14,4.88-8.83,5.7-2.55,11.24,1.62,11.32,8.59.1,9.45.03,18.9.03,28.35,0,1.39,0,2.78,0,4.02h27.19c.09-.85.19-1.38.19-1.9.01-33.14-.03-66.28.09-99.41,0-2.66-1.38-3.39-3.24-4.26-21.65-10.11-43.29-20.24-64.94-30.35-.92-.43-1.91-.69-3-1.07v137.16h27.49ZM114.16,392.61v-137.15c-.85.29-1.46.44-2.02.7-22.24,10.38-44.45,20.81-66.73,31.1-2.15.99-2.45,2.32-2.45,4.34.04,32.58.03,65.17.04,97.75,0,1.03.15,2.05.24,3.27h27.14c0-1.61,0-3.04,0-4.47,0-14.5-.03-28.99.03-43.49,0-1.83.2-3.74.75-5.47,1.11-3.45,4.12-5.51,7.3-4.99,2.63.43,5.37,2.56,7.19,4.68,1.14,1.33.9,4.04.91,6.14.07,14.36.04,28.73.04,43.09,0,1.43,0,2.86,0,4.5h27.56ZM210.66,392.65v-4.44c0-20.22.02-40.43-.02-60.65,0-2.38-.16-4.79-.49-7.15-1.44-10.26-11.99-18.06-22.27-16.55-11.55,1.7-18.13,9.62-18.18,22.3-.09,21.01-.03,42.03-.01,63.04,0,1.14.18,2.28.28,3.44h40.7Z"/>
  <path class="cls-1" d="M190.16,172.35c20.09.02,36.59,16.43,36.66,36.46.07,19.88-16.36,36.4-36.51,36.71-19.83.3-36.98-16.8-36.86-36.76.12-20.05,16.63-36.43,36.71-36.41ZM190.04,229.23c11.35.03,20.61-9.19,20.52-20.45-.09-11.14-9.23-20.29-20.32-20.35-11.24-.06-20.61,9.33-20.51,20.55.1,11.2,9.15,20.22,20.31,20.25Z"/>
  <path class="cls-1" d="M294.01,337.69c-.09-4.57,2.97-7.95,7.36-8.12,4.66-.19,8.06,3.03,8.17,7.74.11,4.57-3.4,8.3-7.8,8.29-4.25,0-7.65-3.48-7.74-7.91Z"/>
</svg>