<?xml version="1.0" encoding="UTF-8"?>
<svg id="Capa_1" data-name="Capa 1" xmlns="http://www.w3.org/2000/svg" viewBox="0 0 244.12 244.12">
  <defs>
    <style>
      .cls-1 {
        fill: #fff;
      }

      .cls-1, .cls-2 {
        stroke-width: 0px;
      }

      .cls-2 {
        fill: #af8f41;
      }
    </style>
  </defs>
  <circle class="cls-2" cx="122.06" cy="122.06" r="122.06"/>
  <g>
    <path class="cls-1" d="M183.63,110.42c-3.17,14.89-6.36,29.85-9.55,44.8-1.85,8.63-3.69,17.26-5.59,25.87-1.68,7.6-8.09,12.32-17.01,12.62-8.58.28-16.81-4.6-18.93-11.24-1.71-5.34.3-10.99,5.52-14.27,7.61-4.79,15.44-4.51,23.2-.21,1.28.71,2.44,1.65,4.06,2.76,2.93-13.67,5.78-26.97,8.63-40.27h-50.01c-2.85,13.16-5.6,25.79-8.33,38.42-.88,4.07-1.69,8.15-2.6,12.21-2.46,11.08-10.88,16.59-22.16,14.53-9.1-1.66-15.37-8.24-14.79-15.52.57-7.2,7.96-13.39,17.03-12.87,5.39.3,10.66,2.64,16.57,4.22,4.17-19.33,8.61-39.84,13.19-61.06h60.77Z"/>
    <path class="cls-1" d="M76.18,89.12c4.15,11.68,8.1,22.8,12.05,33.93,2.27,6.4,1.07,11.3-3.86,15.76-5.13,4.64-12.72,6.14-18.09,3.56-5.64-2.71-7.41-8.95-4.22-14.89,3.3-6.15,9.32-9.16,19.67-9.51-5.24-14.83-10.41-29.49-15.57-44.1,14.74-7.28,34.24,3.07,37.07,19.85-8.33-5.34-16.97-7.57-27.06-4.6Z"/>
    <path class="cls-1" d="M149.63,48.05c13.14,5.22,18.38,16.25,13.46,28.34-3.02-6.54-6.94-11.79-14.25-14.47-2.54,8.38-5.04,16.57-7.51,24.76-2.54,8.39-11.61,11.65-18.51,6.09-2.21-1.78-4.29-5.77-3.82-8.25.48-2.52,3.99-5.95,6.51-6.26,4.42-.54,9.09,1,14.35,1.78,2.92-9.56,6.3-20.62,9.77-31.99Z"/>
  </g>
</svg>