<?xml version="1.0" encoding="utf-8"?>
<!-- Generator: Adobe Illustrator 28.3.0, SVG Export Plug-In . SVG Version: 6.00 Build 0)  -->
<svg version="1.1" id="Capa_1" xmlns="http://www.w3.org/2000/svg" xmlns:xlink="http://www.w3.org/1999/xlink" x="0px" y="0px"
	 viewBox="0 0 189.7 195.8" style="enable-background:new 0 0 189.7 195.8;" xml:space="preserve">
<style type="text/css">
	.st0{fill:#AF8F41;}
	.st1{fill:#FFFFFF;}
</style>
<circle class="st0" cx="94.8" cy="97.9" r="93.6"/>
<path class="st1" d="M50.1,95.3c-2.3,0-4.3,0-6.3,0c-2,0-3.1-0.5-3.1-2.6c0.1-7.5,0.1-15,0-22.5c0-1.9,1-2.5,2.8-2.5
	c3.4,0,6.8,0,10.4,0c-1.3-3.1-2.6-5.9-3.5-8.8c-2.1-7.1,0.8-12.3,8.1-15.1c9.4-3.6,19-1.2,26.4,6.8c2,2.2,3.8,4.5,5.4,6.9
	c1.6,2.3,2.8,4.8,4.1,7.1c3.1-4.5,6-9.2,9.5-13.4c7-8.3,16.6-11,26.1-7.7c7.9,2.7,11,8,8.9,15.6c-0.8,2.8-2.1,5.5-3.4,8.7
	c3.3,0,6.6,0.1,9.8,0c2.6-0.1,3.6,0.8,3.6,3.3c-0.1,6.9-0.2,13.9,0,20.8c0.1,2.8-1.1,3.8-4,3.6c-1.6-0.1-3.3,0-5.4,0v3.8
	c0,16.8,0,33.5,0,50.3c0,4.2-0.1,4.3-4.6,4.3c-26.9,0-53.8-0.1-80.7,0.1c-3.6,0-4.4-1.1-4.3-4.2c0.1-16.8,0.1-33.5,0.1-50.3
	C50.1,98.1,50.1,96.9,50.1,95.3L50.1,95.3z M83.2,150.2V95.5H53.9v54.7C53.9,150.2,83.2,150.2,83.2,150.2z M106.5,95.5v54.6h29.2
	V95.5C135.7,95.5,106.5,95.5,106.5,95.5z M87.4,95.6v54.5h15V95.6C102.4,95.6,87.4,95.6,87.4,95.6z M44.6,91.6h38.6V71.3H44.6V91.6z
	 M145.1,71.3h-38.6v20.3h38.6C145.1,91.7,145.1,71.3,145.1,71.3z M97.8,67.7c10.9,0,21.2,0,31.6-0.1c0.8,0,1.9-0.6,2.2-1.2
	c1.6-3.3,3.4-6.6,4.3-10c0.9-3.5-0.7-6.6-4.1-8.4c-6.3-3.4-12.7-3.5-18.8,0.2C105.4,52.8,101.4,59.8,97.8,67.7L97.8,67.7z
	 M91.8,67.7c-3.5-7.7-7.5-14.4-14.5-19C71.9,45,66,44.5,59.9,46.9c-4.9,1.9-7.2,5.1-6.1,9.9c0.8,3.4,2.7,6.5,4.2,9.7
	c0.3,0.6,1.5,1.1,2.3,1.1C70.6,67.7,80.9,67.7,91.8,67.7L91.8,67.7z M87.3,71.2v20.3h14.9V71.2C102.3,71.2,87.3,71.2,87.3,71.2z"/>
</svg>
